<svg width="420" height="120" viewBox="0 0 420 120" fill="none" xmlns="http://www.w3.org/2000/svg">
<g filter="url(#filter0_d_256_1112)">
<rect x="0.0957031" y="0.737061" width="419" height="119" rx="8" transform="rotate(0.0158183 0.0957031 0.737061)" fill="black"/>
<path d="M34.6428 66.5648L34.6478 48.383L35.8126 48.3833L35.8076 66.5651L34.6428 66.5648ZM37.7357 54.3852C37.679 53.8123 37.4353 53.3672 37.0045 53.0498C36.5737 52.7325 35.989 52.5737 35.2504 52.5735C34.7485 52.5733 34.3247 52.6442 33.979 52.7862C33.6333 52.9234 33.3681 53.1151 33.1834 53.3613C33.0034 53.6074 32.9134 53.8868 32.9133 54.1993C32.9037 54.4597 32.9581 54.687 33.0764 54.8811C33.1995 55.0753 33.3675 55.2434 33.5806 55.3855C33.7936 55.5229 34.0398 55.6437 34.3191 55.7479C34.5984 55.8474 34.8967 55.9328 35.2139 56.0039L36.5206 56.3167C37.1551 56.4589 37.7374 56.6485 38.2676 56.8854C38.7979 57.1223 39.2571 57.4136 39.6452 57.7594C40.0334 58.1051 40.334 58.5124 40.5469 58.9812C40.7646 59.45 40.8757 59.9874 40.8803 60.5935C40.8753 61.4836 40.6478 62.2554 40.1978 62.9087C39.7525 63.5572 39.1085 64.0613 38.2656 64.4209C37.4274 64.7758 36.4165 64.9531 35.2327 64.9527C34.0585 64.9524 33.0358 64.7722 32.1647 64.4121C31.2983 64.052 30.6214 63.5192 30.1339 62.8135C29.6511 62.1032 29.3981 61.2248 29.3747 60.1784L32.3505 60.1792C32.3836 60.6669 32.5231 61.0741 32.7692 61.4009C33.0201 61.723 33.3538 61.9669 33.7705 62.1327C34.1918 62.2938 34.6676 62.3745 35.1979 62.3746C35.7188 62.3747 36.171 62.2991 36.5545 62.1477C36.9428 61.9963 37.2436 61.7857 37.4567 61.5159C37.6699 61.246 37.7765 60.9359 37.7766 60.5855C37.7767 60.2588 37.6797 59.9842 37.4856 59.7616C37.2963 59.539 37.017 59.3495 36.6477 59.1932C36.2831 59.0368 35.8357 58.8947 35.3055 58.7667L33.7218 58.3685C32.4955 58.0699 31.5274 57.6032 30.8173 56.9686C30.1073 56.3339 29.7548 55.4792 29.7598 54.4043C29.7553 53.5237 29.9899 52.7543 30.4636 52.0963C30.942 51.4383 31.5979 50.9247 32.4313 50.5557C33.2648 50.1866 34.2118 50.0022 35.2724 50.0025C36.3519 50.0028 37.2941 50.1877 38.0989 50.5572C38.9085 50.9268 39.5381 51.4407 39.9877 52.0989C40.4373 52.7572 40.6691 53.5196 40.6831 54.3861L37.7357 54.3852ZM48.2388 64.9492C47.1782 64.9489 46.2336 64.7664 45.4051 64.4016C44.5814 64.032 43.9305 63.5252 43.4524 62.8811C42.9791 62.2323 42.7355 61.4842 42.7215 60.6366L45.8181 60.6375C45.8369 60.9926 45.9529 61.3051 46.1659 61.5751C46.3836 61.8403 46.6724 62.0463 47.0322 62.1932C47.392 62.3401 47.7968 62.4136 48.2466 62.4137C48.7153 62.4138 49.1297 62.3311 49.4896 62.1655C49.8494 61.9999 50.1312 61.7703 50.3349 61.4768C50.5386 61.1833 50.6405 60.8448 50.6406 60.4613C50.6407 60.073 50.5319 59.7297 50.3142 59.4313C50.1012 59.1282 49.7935 58.8914 49.3911 58.7208C48.9934 58.5503 48.5199 58.4649 47.9707 58.4648L46.6142 58.4644L46.6148 56.2059L47.9713 56.2063C48.4353 56.2064 48.8449 56.126 49.2001 55.9651C49.56 55.8042 49.8394 55.5818 50.0383 55.2977C50.2373 55.009 50.3368 54.6728 50.3369 54.2893C50.337 53.9247 50.2495 53.6051 50.0744 53.3304C49.904 53.051 49.6626 52.8331 49.3501 52.6768C49.0424 52.5205 48.6826 52.4422 48.2706 52.4421C47.854 52.442 47.4728 52.5177 47.1271 52.6691C46.7814 52.8158 46.5044 53.0264 46.296 53.301C46.0876 53.5755 45.9762 53.8975 45.9619 54.2668L43.0145 54.266C43.0289 53.4279 43.2682 52.6893 43.7324 52.0503C44.1966 51.4112 44.8217 50.9118 45.6078 50.5522C46.3986 50.1878 47.2912 50.0058 48.2855 50.0061C49.2893 50.0063 50.1676 50.1889 50.9203 50.5537C51.6731 50.9184 52.2577 51.411 52.6742 52.0314C53.0954 52.6471 53.3035 53.3384 53.2986 54.1055C53.3031 54.9198 53.0496 55.5992 52.5381 56.1436C52.0313 56.688 51.3707 57.0334 50.5563 57.18L50.5562 57.2936C51.6263 57.4312 52.4406 57.8031 52.9991 58.4093C53.5624 59.0108 53.8415 59.7637 53.8366 60.6681C53.8411 61.4967 53.6018 62.2329 53.1186 62.8767C52.6402 63.5205 51.9796 64.027 51.1367 64.396C50.2938 64.7651 49.3278 64.9495 48.2388 64.9492ZM62.3782 50.2088L62.3741 64.7543L59.2989 64.7534L59.3021 53.127L59.2168 53.127L55.8853 55.2141L55.886 52.4868L59.4875 50.208L62.3782 50.2088ZM68.3672 62.7673L68.2889 63.5485C68.2272 64.1735 68.1086 64.7961 67.9333 65.4163C67.7626 66.0413 67.5826 66.607 67.393 67.1136C67.2082 67.6202 67.059 68.0179 66.9452 68.3067L64.985 68.3061C65.0561 68.0268 65.1533 67.6362 65.2765 67.1343C65.3998 66.6372 65.5159 66.0785 65.625 65.4583C65.7341 64.8381 65.8029 64.206 65.8315 63.562L65.8672 62.7666L68.3672 62.7673ZM76.2217 65.0777C75.0001 65.0726 73.9491 64.7717 73.0685 64.1748C72.1928 63.578 71.5183 62.7137 71.0451 61.5819C70.5767 60.4502 70.345 59.0888 70.3502 57.4979C70.3507 55.9118 70.5854 54.56 71.0545 53.4427C71.5283 52.3254 72.2032 51.4757 73.0793 50.8936C73.9602 50.3067 75.009 50.0134 76.2259 50.0138C77.4427 50.0141 78.489 50.308 79.3648 50.8953C80.2453 51.4827 80.9222 52.3351 81.3954 53.4527C81.8685 54.5655 82.1025 55.915 82.0974 57.5012C82.0969 59.0968 81.8598 60.4604 81.386 61.5919C80.917 62.7234 80.2444 63.5873 79.3683 64.1837C78.4921 64.78 77.4433 65.078 76.2217 65.0777ZM76.2224 62.528C77.0557 62.5282 77.7211 62.1094 78.2185 61.2714C78.7159 60.4335 78.9624 59.1765 78.9582 57.5003C78.9585 56.3971 78.8451 55.4785 78.618 54.7445C78.3957 54.0106 78.0786 53.4589 77.6668 53.0895C77.2597 52.72 76.7791 52.5352 76.2252 52.5351C75.3966 52.5348 74.7336 52.949 74.2362 53.7774C73.7388 54.6059 73.4875 55.8463 73.4823 57.4988C73.482 58.6162 73.593 59.549 73.8154 60.2972C74.0424 61.0406 74.3619 61.5994 74.7737 61.9736C75.1855 62.343 75.6684 62.5278 76.2224 62.528ZM89.5551 50.0174C90.3032 50.0177 91.0228 50.1433 91.714 50.3945C92.41 50.6456 93.0301 51.0459 93.5745 51.5953C94.1236 52.1447 94.5566 52.8739 94.8736 53.7831C95.1953 54.6876 95.3584 55.7979 95.3628 57.1142C95.3624 58.35 95.2224 59.4532 94.9428 60.4238C94.6679 61.3896 94.2723 62.211 93.756 62.8879C93.2398 63.5649 92.617 64.0808 91.8877 64.4357C91.1585 64.7859 90.344 64.9608 89.4444 64.9606C88.4737 64.9603 87.6168 64.7731 86.8735 64.3988C86.1303 64.0198 85.5314 63.5059 85.0771 62.8571C84.6274 62.2036 84.3554 61.4696 84.2609 60.6552L87.2936 60.656C87.4118 61.1864 87.6603 61.5984 88.039 61.892C88.4177 62.181 88.8864 62.3255 89.4451 62.3257C90.3921 62.3259 91.1119 61.9142 91.6046 61.0905C92.0972 60.262 92.3461 59.1281 92.3512 57.6887L92.2518 57.6886C92.0339 58.1147 91.7402 58.4816 91.3708 58.7893C91.0014 59.0922 90.5776 59.3264 90.0993 59.492C89.6258 59.6576 89.1215 59.7403 88.5865 59.7402C87.7295 59.74 86.9648 59.5385 86.2926 59.1359C85.6204 58.7332 85.0902 58.1791 84.7021 57.4735C84.3141 56.7679 84.1202 55.9629 84.1204 55.0586C84.116 54.0832 84.3411 53.2144 84.7959 52.4522C85.2506 51.69 85.8852 51.0936 86.6998 50.663C87.519 50.2276 88.4708 50.0124 89.5551 50.0174ZM89.5757 52.4322C89.0975 52.4321 88.6713 52.5456 88.2972 52.7728C87.9278 53 87.6342 53.3053 87.4163 53.6887C87.2031 54.0722 87.0988 54.5007 87.1034 54.9742C87.1033 55.4524 87.2073 55.8833 87.4155 56.2669C87.6285 56.6457 87.9172 56.9488 88.2818 57.1762C88.651 57.3988 89.0724 57.5102 89.5459 57.5103C89.901 57.5104 90.2301 57.4442 90.5332 57.3118C90.8362 57.1793 91.0991 56.997 91.3217 56.7651C91.549 56.5284 91.7266 56.2562 91.8546 55.9485C91.9825 55.6408 92.0465 55.3141 92.0466 54.9684C92.042 54.5091 91.9332 54.0877 91.7202 53.7041C91.5073 53.3205 91.2138 53.0127 90.8398 52.7806C90.4658 52.5485 90.0444 52.4324 89.5757 52.4322ZM97.4913 64.764L97.4919 62.548L102.671 57.7554C103.111 57.3294 103.481 56.946 103.779 56.6052C104.082 56.2644 104.312 55.9306 104.468 55.604C104.625 55.2726 104.703 54.9151 104.703 54.5316C104.703 54.1054 104.606 53.7385 104.412 53.4306C104.218 53.1181 103.953 52.8789 103.617 52.7131C103.281 52.5425 102.9 52.4572 102.473 52.4571C102.028 52.457 101.64 52.5468 101.309 52.7267C100.977 52.9065 100.721 53.1645 100.541 53.5006C100.361 53.8367 100.271 54.2368 100.271 54.7008L97.3521 54.7C97.3523 53.7483 97.568 52.9221 97.999 52.2215C98.4301 51.5208 99.034 50.9789 99.8106 50.5956C100.587 50.2123 101.482 50.0207 102.495 50.021C103.537 50.0213 104.444 50.2062 105.215 50.5757C105.992 50.9405 106.595 51.4473 107.026 52.0961C107.457 52.7449 107.672 53.4884 107.672 54.3264C107.672 54.8757 107.563 55.4178 107.345 55.9528C107.131 56.4877 106.75 57.0819 106.201 57.7351C105.651 58.3836 104.877 59.1623 103.878 60.0711L101.753 62.1515L101.753 62.2509L107.861 62.2526L107.861 64.7668L97.4913 64.764Z" fill="white"/>
<path d="M89.0468 86.1253L89.0466 87.1196L84.9301 87.1185L84.9304 86.1241L89.0468 86.1253ZM86.1612 93.7608L86.1636 85.0705C86.1637 84.633 86.2666 84.2684 86.4721 83.9768C86.6777 83.6852 86.9446 83.4666 87.2727 83.3208C87.6009 83.1751 87.9473 83.1022 88.3119 83.1023C88.6002 83.1024 88.8355 83.1257 89.0178 83.1721C89.2001 83.2186 89.336 83.2617 89.4255 83.3015L89.0871 84.3156C89.0274 84.2957 88.9446 84.2708 88.8385 84.241C88.7358 84.2111 88.5999 84.1962 88.4309 84.1961C88.0431 84.196 87.763 84.2937 87.5906 84.4892C87.4215 84.6847 87.3369 84.9714 87.3368 85.3492L87.3345 93.7612L86.1612 93.7608ZM90.1891 93.762L90.1912 86.1256L91.3247 86.1259L91.3244 87.2793L91.4039 87.2793C91.5432 86.9015 91.7952 86.595 92.1599 86.3598C92.5245 86.1246 92.9355 86.007 93.3929 86.0072C93.4791 86.0072 93.5868 86.0089 93.7161 86.0122C93.8453 86.0156 93.9431 86.0206 94.0094 86.0272L94.0091 87.2204C93.9693 87.2104 93.8782 87.1955 93.7356 87.1756C93.5964 87.1523 93.449 87.1407 93.2932 87.1407C92.922 87.1406 92.5905 87.2183 92.2988 87.374C92.0104 87.5264 91.7816 87.7385 91.6125 88.0102C91.4467 88.2786 91.3638 88.5852 91.3637 88.9299L91.3624 93.7623L90.1891 93.762ZM97.7679 93.9231C97.0785 93.9229 96.4736 93.7587 95.9534 93.4305C95.4364 93.1022 95.0322 92.643 94.7407 92.053C94.4525 91.4629 94.3085 90.7735 94.3087 89.9847C94.3089 89.1892 94.4533 88.4949 94.7418 87.9017C95.0337 87.3085 95.4381 86.8479 95.9553 86.5199C96.4757 86.192 97.0807 86.0281 97.77 86.0283C98.4594 86.0284 99.0626 86.1927 99.5796 86.5209C100.1 86.8492 100.504 87.31 100.792 87.9034C101.084 88.4967 101.229 89.1911 101.229 89.9866C101.229 90.7754 101.083 91.4648 100.791 92.0547C100.503 92.6445 100.098 93.1035 99.5777 93.4315C99.0605 93.7594 98.4573 93.9233 97.7679 93.9231ZM97.7682 92.8692C98.2918 92.8693 98.7227 92.7352 99.0609 92.4668C99.399 92.1984 99.6494 91.8455 99.8119 91.4081C99.9744 90.9706 100.056 90.4967 100.056 89.9863C100.056 89.4759 99.975 89.0002 99.8127 88.5594C99.6504 88.1185 99.4002 87.7621 99.0623 87.4903C98.7243 87.2184 98.2934 87.0824 97.7698 87.0822C97.2461 87.0821 96.8152 87.2179 96.477 87.4895C96.1389 87.7612 95.8886 88.1175 95.726 88.5582C95.5635 88.999 95.4822 89.4746 95.482 89.985C95.4819 90.4954 95.563 90.9694 95.7252 91.407C95.8875 91.8445 96.1377 92.1975 96.4757 92.4661C96.8136 92.7347 97.2445 92.869 97.7682 92.8692ZM102.519 93.7654L102.521 86.129L103.655 86.1293L103.654 87.3225L103.754 87.3225C103.913 86.9149 104.17 86.5984 104.525 86.3732C104.879 86.1446 105.305 86.0303 105.803 86.0305C106.306 86.0306 106.726 86.1451 107.06 86.3739C107.398 86.5993 107.662 86.9159 107.85 87.3237L107.93 87.3237C108.126 86.9293 108.419 86.6162 108.81 86.3843C109.201 86.1491 109.67 86.0315 110.217 86.0317C110.9 86.0319 111.458 86.2458 111.893 86.6735C112.327 87.0979 112.544 87.7591 112.543 88.6573L112.542 93.7681L111.369 93.7678L111.37 88.657C111.37 88.0936 111.216 87.6908 110.908 87.4488C110.6 87.2067 110.237 87.0857 109.819 87.0856C109.282 87.0854 108.866 87.2477 108.571 87.5724C108.276 87.8938 108.129 88.3015 108.128 88.7953L108.127 93.7669L106.934 93.7666L106.935 88.5365C106.935 88.1023 106.795 87.7526 106.513 87.4873C106.231 87.2188 105.869 87.0845 105.424 87.0843C105.119 87.0843 104.834 87.1654 104.569 87.3277C104.307 87.49 104.095 87.7154 103.933 88.0037C103.774 88.2887 103.694 88.6184 103.694 88.993L103.692 93.7657L102.519 93.7654ZM118.801 83.588L118.798 93.7699L117.625 93.7695L117.627 83.5877L118.801 83.588ZM122.694 93.9499C122.21 93.9498 121.771 93.8585 121.377 93.6761C120.982 93.4904 120.669 93.2235 120.437 92.8754C120.205 92.524 120.089 92.0998 120.09 91.6026C120.09 91.1651 120.176 90.8105 120.348 90.5387C120.521 90.2637 120.751 90.0483 121.04 89.8926C121.328 89.7369 121.646 89.621 121.994 89.5449C122.346 89.4654 122.699 89.4026 123.053 89.3563C123.517 89.2967 123.893 89.2521 124.182 89.2223C124.473 89.1893 124.686 89.1346 124.818 89.0584C124.954 88.9823 125.022 88.8497 125.022 88.6608L125.022 88.621C125.022 88.1305 124.888 87.7493 124.62 87.4774C124.355 87.2056 123.952 87.0696 123.412 87.0694C122.852 87.0693 122.412 87.1918 122.094 87.437C121.776 87.6821 121.552 87.9439 121.423 88.2223L120.309 87.8242C120.508 87.3603 120.774 86.9991 121.105 86.7407C121.44 86.4789 121.805 86.2967 122.199 86.1941C122.597 86.0881 122.988 86.0352 123.372 86.0353C123.618 86.0354 123.899 86.0653 124.217 86.125C124.539 86.1815 124.849 86.2992 125.147 86.4783C125.449 86.6573 125.699 86.9275 125.898 87.2889C126.096 87.6502 126.196 88.1341 126.195 88.7406L126.194 93.7719L125.021 93.7716L125.021 92.7375L124.961 92.7375C124.882 92.9032 124.749 93.0804 124.564 93.2693C124.378 93.4582 124.131 93.6189 123.823 93.7514C123.514 93.8838 123.138 93.95 122.694 93.9499ZM122.873 92.896C123.337 92.8961 123.728 92.8051 124.047 92.6229C124.368 92.4407 124.61 92.2054 124.773 91.9171C124.938 91.6288 125.021 91.3256 125.022 91.0074L125.022 89.9335C124.972 89.9932 124.863 90.0478 124.694 90.0975C124.528 90.1438 124.336 90.1852 124.117 90.2216C123.901 90.2547 123.691 90.2845 123.485 90.3109C123.283 90.3341 123.119 90.3539 122.993 90.3704C122.688 90.4101 122.403 90.4747 122.138 90.5641C121.876 90.6502 121.664 90.7811 121.502 90.9567C121.343 91.129 121.263 91.3643 121.263 91.6626C121.263 92.0703 121.413 92.3785 121.715 92.5874C122.02 92.793 122.406 92.8959 122.873 92.896ZM133.246 87.8477L132.192 88.1457C132.126 87.97 132.028 87.7993 131.899 87.6336C131.773 87.4645 131.601 87.3252 131.382 87.2158C131.163 87.1064 130.883 87.0516 130.542 87.0515C130.075 87.0514 129.685 87.159 129.374 87.3743C129.065 87.5864 128.911 87.8565 128.911 88.1846C128.911 88.4762 129.017 88.7066 129.229 88.8757C129.441 89.0448 129.772 89.1858 130.223 89.2986L131.357 89.5773C132.039 89.7432 132.548 89.9969 132.883 90.3384C133.217 90.6765 133.385 91.1124 133.384 91.646C133.384 92.0835 133.258 92.4746 133.006 92.8192C132.758 93.1639 132.41 93.4355 131.962 93.6343C131.515 93.833 130.994 93.9323 130.401 93.9321C129.622 93.9319 128.977 93.7627 128.467 93.4245C127.957 93.0863 127.634 92.5924 127.498 91.9427L128.612 91.6646C128.718 92.0756 128.918 92.3839 129.213 92.5895C129.511 92.7951 129.901 92.8979 130.381 92.8981C130.928 92.8982 131.362 92.7823 131.684 92.5504C132.009 92.3152 132.171 92.0335 132.171 91.7054C132.171 91.4402 132.079 91.2181 131.893 91.0391C131.708 90.8568 131.423 90.7208 131.038 90.6312L129.765 90.3325C129.066 90.1666 128.553 89.9096 128.225 89.5615C127.9 89.2101 127.738 88.7709 127.738 88.2439C127.738 87.813 127.859 87.4319 128.101 87.1005C128.346 86.7692 128.679 86.5091 129.1 86.3203C129.525 86.1315 130.005 86.0372 130.542 86.0373C131.298 86.0375 131.891 86.2034 132.322 86.535C132.756 86.8665 133.064 87.3041 133.246 87.8477ZM137.973 86.1388L137.973 87.1331L134.015 87.132L134.016 86.1377L137.973 86.1388ZM135.17 84.3085L136.343 84.3088L136.341 91.5872C136.341 91.9186 136.389 92.1672 136.485 92.333C136.584 92.4954 136.71 92.6048 136.863 92.6612C137.018 92.7143 137.182 92.7408 137.355 92.7409C137.484 92.7409 137.59 92.7343 137.673 92.7211C137.756 92.7045 137.822 92.6913 137.872 92.6814L138.11 93.7354C138.031 93.7652 137.92 93.795 137.777 93.8248C137.635 93.8579 137.454 93.8744 137.235 93.8744C136.904 93.8743 136.579 93.8029 136.261 93.6603C135.946 93.5177 135.684 93.3006 135.476 93.0088C135.27 92.7171 135.167 92.3492 135.168 91.9051L135.17 84.3085ZM143.428 96.6403C143.229 96.6402 143.052 96.6236 142.896 96.5904C142.741 96.5606 142.633 96.5307 142.573 96.5009L142.872 95.4668C143.157 95.5398 143.409 95.5664 143.628 95.5466C143.846 95.5268 144.04 95.429 144.209 95.2534C144.382 95.0811 144.539 94.8011 144.682 94.4134L144.901 93.8168L142.079 86.1399L143.352 86.1403L145.458 92.2261L145.538 92.2261L147.647 86.1415L148.92 86.1418L145.676 94.8909C145.53 95.2853 145.349 95.6117 145.134 95.8702C144.918 96.1319 144.668 96.3258 144.383 96.4516C144.101 96.5775 143.783 96.6404 143.428 96.6403ZM152.895 93.9384C152.159 93.9382 151.524 93.7756 150.991 93.4506C150.46 93.1223 150.051 92.6648 149.763 92.0781C149.478 91.4881 149.336 90.802 149.336 90.0198C149.336 89.2376 149.479 88.5482 149.764 87.9517C150.053 87.3519 150.454 86.8847 150.968 86.55C151.485 86.2121 152.088 86.0433 152.777 86.0434C153.175 86.0436 153.568 86.1099 153.956 86.2426C154.343 86.3753 154.696 86.5908 155.014 86.8892C155.333 87.1843 155.586 87.5755 155.775 88.0627C155.964 88.55 156.058 89.1499 156.058 89.8625L156.058 90.3597L150.171 90.3581L150.171 89.3439L154.865 89.3452C154.865 88.9143 154.779 88.5298 154.606 88.1917C154.438 87.8536 154.196 87.5867 153.881 87.391C153.569 87.1954 153.201 87.0975 152.777 87.0974C152.31 87.0973 151.905 87.2132 151.564 87.4451C151.226 87.6737 150.966 87.9719 150.783 88.3398C150.601 88.7076 150.51 89.102 150.509 89.5229L150.509 90.1991C150.509 90.7758 150.608 91.2647 150.807 91.6658C151.009 92.0635 151.289 92.3669 151.647 92.5758C152.005 92.7814 152.421 92.8843 152.895 92.8844C153.203 92.8845 153.482 92.8415 153.73 92.7554C153.982 92.6659 154.199 92.5334 154.382 92.3578C154.564 92.1789 154.705 91.9569 154.804 91.6917L155.938 92.0102C155.818 92.3947 155.618 92.7327 155.336 93.0243C155.054 93.3125 154.706 93.5378 154.292 93.7001C153.877 93.8591 153.412 93.9385 152.895 93.9384ZM159.589 93.9601C159.105 93.96 158.665 93.8687 158.271 93.6863C157.877 93.5006 157.564 93.2337 157.332 92.8856C157.1 92.5342 156.984 92.1099 156.984 91.6128C156.984 91.1753 157.07 90.8207 157.243 90.5489C157.415 90.2739 157.646 90.0585 157.934 89.9028C158.222 89.7471 158.541 89.6312 158.889 89.5551C159.24 89.4756 159.593 89.4127 159.948 89.3664C160.412 89.3069 160.788 89.2623 161.076 89.2325C161.368 89.1995 161.58 89.1448 161.713 89.0686C161.849 88.9924 161.917 88.8599 161.917 88.671L161.917 88.6312C161.917 88.1407 161.783 87.7595 161.514 87.4876C161.249 87.2158 160.847 87.0798 160.306 87.0796C159.746 87.0795 159.307 87.202 158.989 87.4471C158.671 87.6923 158.447 87.9541 158.317 88.2325L157.204 87.8344C157.403 87.3705 157.668 87.0093 158 86.7508C158.334 86.4891 158.699 86.3069 159.094 86.2043C159.491 86.0983 159.882 86.0454 160.267 86.0455C160.512 86.0456 160.794 86.0755 161.112 86.1352C161.433 86.1917 161.743 86.3094 162.042 86.4885C162.343 86.6675 162.593 86.9377 162.792 87.299C162.991 87.6604 163.09 88.1443 163.09 88.7508L163.089 93.7821L161.915 93.7818L161.916 92.7477L161.856 92.7477C161.776 92.9133 161.644 93.0906 161.458 93.2795C161.272 93.4684 161.025 93.6291 160.717 93.7615C160.409 93.894 160.033 93.9602 159.589 93.9601ZM159.768 92.9062C160.232 92.9063 160.623 92.8153 160.941 92.6331C161.263 92.4508 161.505 92.2156 161.667 91.9273C161.833 91.639 161.916 91.3357 161.916 91.0176L161.916 89.9437C161.867 90.0033 161.757 90.058 161.588 90.1077C161.422 90.154 161.23 90.1954 161.011 90.2318C160.796 90.2649 160.586 90.2946 160.38 90.3211C160.178 90.3443 160.014 90.3641 159.888 90.3806C159.583 90.4203 159.298 90.4849 159.033 90.5743C158.771 90.6604 158.559 90.7912 158.396 90.9669C158.237 91.1392 158.157 91.3745 158.157 91.6728C158.157 92.0804 158.308 92.3887 158.609 92.5976C158.914 92.8032 159.3 92.906 159.768 92.9062ZM164.73 93.7825L164.732 86.1462L165.866 86.1465L165.865 87.2999L165.945 87.2999C166.084 86.9221 166.336 86.6156 166.701 86.3804C167.066 86.1452 167.477 86.0276 167.934 86.0277C168.02 86.0278 168.128 86.0294 168.257 86.0328C168.386 86.0361 168.484 86.0411 168.55 86.0478L168.55 87.241C168.51 87.231 168.419 87.2161 168.277 87.1962C168.137 87.1729 167.99 87.1613 167.834 87.1612C167.463 87.1611 167.132 87.2389 166.84 87.3946C166.551 87.547 166.323 87.7591 166.154 88.0308C165.988 88.2992 165.905 88.6058 165.905 88.9505L165.903 93.7829L164.73 93.7825Z" fill="#5C616E"/>
<path d="M45.2915 91.86L45.2919 90.3934L49.6141 83.5686L50.8371 83.5689L50.8365 85.657L50.0908 85.6568L47.1811 90.2647L47.1811 90.3442L53.2116 90.3459L53.2112 91.8622L45.2915 91.86ZM50.1482 93.7506L50.1488 91.4139L50.1689 90.7577L50.1709 83.5688L51.911 83.5692L51.9081 93.751L50.1482 93.7506ZM55.6405 93.8615C55.3389 93.8614 55.0804 93.7552 54.8651 93.5431C54.6497 93.3309 54.5437 93.0723 54.5471 92.7674C54.5439 92.4691 54.65 92.2139 54.8655 92.0019C55.081 91.7898 55.3395 91.6838 55.6411 91.6839C55.9328 91.684 56.1863 91.7901 56.4017 92.0023C56.6204 92.2145 56.7314 92.4697 56.7346 92.768C56.7312 92.9702 56.6781 93.1541 56.5753 93.3198C56.4759 93.4855 56.3433 93.618 56.1775 93.7174C56.0151 93.8135 55.8361 93.8615 55.6405 93.8615ZM58.5726 93.7529L58.5729 92.4205L62.1087 88.9563C62.4469 88.615 62.7287 88.3118 62.9541 88.0467C63.1796 87.7816 63.3487 87.5248 63.4614 87.2763C63.5742 87.0277 63.6306 86.7626 63.6307 86.4808C63.6308 86.1594 63.5579 85.8842 63.4122 85.6555C63.2664 85.4235 63.0659 85.2444 62.8107 85.1184C62.5556 84.9924 62.2656 84.9293 61.9408 84.9292C61.606 84.9292 61.3127 84.9987 61.0607 85.1378C60.8088 85.2736 60.6132 85.4675 60.4739 85.7193C60.338 85.9712 60.2699 86.2711 60.2698 86.6191L58.5149 86.6186C58.5151 85.9723 58.6627 85.4106 58.9578 84.9334C59.2529 84.4562 59.659 84.0868 60.1762 83.8251C60.6966 83.5634 61.2932 83.4326 61.966 83.4328C62.6488 83.433 63.2487 83.5608 63.7656 83.8161C64.2826 84.0715 64.6836 84.4212 64.9685 84.8654C65.2567 85.3097 65.4007 85.8168 65.4006 86.3869C65.4005 86.768 65.3275 87.1425 65.1815 87.5104C65.0356 87.8783 64.7786 88.2859 64.4106 88.7332C64.0459 89.1805 63.5337 89.7223 62.8739 90.3585L61.1185 92.1428L61.1184 92.2124L65.5531 92.2136L65.5527 93.7548L58.5726 93.7529ZM72.7123 91.8477L72.7124 91.3108C72.7126 90.9164 72.7955 90.5535 72.9613 90.2221C73.1304 89.8907 73.3758 89.6239 73.6973 89.4218C74.0189 89.2197 74.4084 89.1188 74.8657 89.1189C75.3364 89.119 75.7308 89.2202 76.0489 89.4225C76.367 89.6214 76.6072 89.8867 76.7696 90.2181C76.9352 90.5496 77.0179 90.9142 77.0178 91.312L77.0177 91.8489C77.0176 92.2433 76.9346 92.6062 76.7688 92.9376C76.603 93.269 76.3593 93.5357 76.0378 93.7378C75.7195 93.9399 75.3284 94.0409 74.8644 94.0408C74.4004 94.0406 74.0076 93.9394 73.6862 93.7372C73.3648 93.5349 73.1212 93.268 72.9556 92.9365C72.7933 92.6051 72.7122 92.2421 72.7123 91.8477ZM74.01 91.3111L74.0099 91.8481C74.0098 92.1099 74.0727 92.3502 74.1986 92.569C74.3245 92.7878 74.5465 92.8972 74.8647 92.8973C75.1862 92.8974 75.4066 92.7897 75.526 92.5743C75.6487 92.3556 75.7101 92.1137 75.7102 91.8485L75.7103 91.3116C75.7104 91.0464 75.6524 90.8045 75.5365 90.5857C75.4206 90.3636 75.1969 90.2525 74.8654 90.2524C74.5539 90.2523 74.3334 90.3633 74.2041 90.5853C74.0748 90.804 74.0101 91.046 74.01 91.3111ZM67.5385 86.0196L67.5386 85.4826C67.5387 85.0849 67.6234 84.7203 67.7925 84.389C67.9616 84.0576 68.2069 83.7925 68.5285 83.5937C68.85 83.3916 69.2395 83.2906 69.6969 83.2908C70.1642 83.2909 70.557 83.3921 70.8751 83.5944C71.1965 83.7933 71.4384 84.0585 71.6007 84.39C71.763 84.7215 71.8441 85.0861 71.844 85.4838L71.8439 86.0208C71.8438 86.4185 71.7608 86.783 71.595 87.1144C71.4325 87.4425 71.1905 87.7059 70.8689 87.9047C70.5474 88.1035 70.1562 88.2028 69.6955 88.2027C69.2282 88.2026 68.8338 88.103 68.5124 87.9041C68.1943 87.7051 67.9524 87.4399 67.7868 87.1084C67.6211 86.7769 67.5384 86.414 67.5385 86.0196ZM68.8462 85.483L68.846 86.0199C68.8459 86.2851 68.9072 86.527 69.0298 86.7458C69.1556 86.9613 69.3777 87.0691 69.6959 87.0692C70.014 87.0693 70.2328 86.9616 70.3522 86.7462C70.4749 86.5275 70.5363 86.2855 70.5363 86.0204L70.5365 85.4835C70.5366 85.2183 70.4786 84.9763 70.3627 84.7576C70.2467 84.5355 70.0247 84.4244 69.6966 84.4243C69.3817 84.4242 69.1613 84.5352 69.0353 84.7572C68.9093 84.9792 68.8462 85.2212 68.8462 85.483ZM68.1031 93.7555L75.1059 83.5756L76.3488 83.576L69.346 93.7559L68.1031 93.7555Z" fill="#60D39C"/>
<g clip-path="url(#clip0_256_1112)">
<path d="M30.8217 87.9952L34.5728 84.2462L38.3217 87.9973" stroke="#60D39C" stroke-width="2" stroke-linecap="round" stroke-linejoin="round"/>
<path d="M34.5703 93.2462L34.5728 84.2462" stroke="#60D39C" stroke-width="2" stroke-linecap="round"/>
</g>
<path d="M35.244 28.364C35.1978 27.9298 35.0023 27.5916 34.6577 27.3496C34.3164 27.1075 33.8723 26.9864 33.3254 26.9863C32.9409 26.9862 32.6111 27.0441 32.336 27.16C32.0609 27.276 31.8504 27.4333 31.7045 27.6322C31.5586 27.831 31.4839 28.058 31.4806 28.3132C31.4805 28.5253 31.5285 28.7093 31.6246 28.8651C31.724 29.0209 31.8582 29.1535 32.0272 29.2629C32.1962 29.369 32.3834 29.4586 32.5889 29.5315C32.7944 29.6045 33.0015 29.6659 33.2103 29.7157L34.1648 29.9546C34.5492 30.0442 34.9187 30.1652 35.2733 30.3178C35.6312 30.4704 35.951 30.6627 36.2327 30.8948C36.5177 31.1269 36.743 31.407 36.9086 31.7352C37.0742 32.0633 37.157 32.4478 37.1568 32.8886C37.1567 33.4852 37.0041 34.0105 36.699 34.4645C36.394 34.9152 35.9531 35.268 35.3763 35.5231C34.8028 35.7748 34.1084 35.9006 33.2931 35.9004C32.501 35.9001 31.8132 35.7773 31.23 35.5319C30.65 35.2865 30.1961 34.9284 29.8681 34.4576C29.5434 33.9869 29.3679 33.4135 29.3415 32.7373L31.1562 32.7378C31.1826 33.0925 31.2919 33.3875 31.4841 33.6229C31.6762 33.8582 31.9264 34.034 32.2346 34.1501C32.5461 34.2661 32.8941 34.3242 33.2786 34.3244C33.6797 34.3245 34.031 34.2649 34.3326 34.1457C34.6376 34.0231 34.8763 33.8542 35.0487 33.6388C35.2211 33.4201 35.309 33.1649 35.3124 32.8732C35.3092 32.6081 35.2313 32.3893 35.0789 32.2169C34.9265 32.0412 34.7128 31.8953 34.4377 31.7792C34.1659 31.6598 33.8478 31.5537 33.4832 31.4608L32.3249 31.1622C31.4865 30.9465 30.8237 30.6198 30.3366 30.1822C29.8528 29.7413 29.611 29.1562 29.6112 28.427C29.6114 27.8271 29.7739 27.3018 30.0989 26.8512C30.4271 26.4005 30.873 26.051 31.4365 25.8025C32 25.5508 32.6381 25.425 33.3507 25.4252C34.0732 25.4254 34.7062 25.5515 35.2497 25.8036C35.7965 26.0523 36.2256 26.3988 36.5371 26.843C36.8485 27.2839 37.0091 27.7911 37.0189 28.3644L35.244 28.364ZM40.9183 35.9025C40.4344 35.9023 39.9985 35.816 39.6108 35.6436C39.2264 35.4678 38.9215 35.2092 38.6963 34.8678C38.4743 34.5263 38.3634 34.1054 38.3635 33.6049C38.3636 33.174 38.4433 32.8177 38.6024 32.5361C38.7616 32.2544 38.9788 32.0291 39.2539 31.8601C39.529 31.6911 39.839 31.5636 40.1837 31.4775C40.5317 31.3881 40.8914 31.3236 41.2626 31.2839C41.71 31.2377 42.073 31.1963 42.3514 31.16C42.6298 31.1203 42.832 31.0607 42.958 30.9811C43.0873 30.8983 43.1519 30.7707 43.152 30.5984L43.152 30.5686C43.1521 30.194 43.0411 29.904 42.8191 29.6984C42.5971 29.4929 42.2773 29.39 41.8597 29.3899C41.4189 29.3898 41.0692 29.4858 40.8106 29.678C40.5553 29.8702 40.3829 30.0971 40.2934 30.359L38.613 30.1199C38.7457 29.6559 38.9646 29.2682 39.2696 28.9567C39.5746 28.6419 39.9476 28.4067 40.3884 28.251C40.8293 28.0921 41.3165 28.0127 41.8501 28.0128C42.218 28.0129 42.5843 28.0561 42.9488 28.1424C43.3134 28.2286 43.6464 28.3712 43.948 28.5702C44.2495 28.7658 44.4914 29.0327 44.6736 29.3708C44.8591 29.7089 44.9518 30.1316 44.9517 30.6387L44.9503 35.7495L43.2202 35.749L43.2204 34.7L43.1608 34.7C43.0514 34.912 42.8972 35.1109 42.6983 35.2964C42.5027 35.4787 42.2557 35.6261 41.9574 35.7387C41.6624 35.848 41.316 35.9026 40.9183 35.9025ZM41.386 34.5801C41.7472 34.5802 42.0605 34.5091 42.3257 34.3666C42.5908 34.2209 42.7947 34.0287 42.9373 33.7901C43.0832 33.5515 43.1562 33.2913 43.1563 33.0096L43.1565 32.1098C43.1002 32.1561 43.004 32.1992 42.8681 32.2389C42.7356 32.2787 42.5864 32.3134 42.4207 32.3432C42.2549 32.373 42.0909 32.3995 41.9285 32.4226C41.766 32.4458 41.6252 32.4656 41.5059 32.4822C41.2374 32.5185 40.9971 32.5781 40.7849 32.6609C40.5728 32.7437 40.4054 32.8597 40.2827 33.0088C40.16 33.1546 40.0987 33.3435 40.0986 33.5755C40.0985 33.907 40.2194 34.1572 40.4613 34.3263C40.7032 34.4954 41.0114 34.58 41.386 34.5801ZM48.5625 25.5686L48.5596 35.7504L46.7599 35.75L46.7627 25.5681L48.5625 25.5686ZM53.791 35.901C53.0253 35.9008 52.3642 35.7416 51.8074 35.4232C51.254 35.1016 50.8282 34.6474 50.5301 34.0607C50.232 33.4706 50.083 32.7762 50.0832 31.9774C50.0835 31.1919 50.2328 30.5026 50.5313 29.9094C50.833 29.3129 51.2541 28.849 51.7944 28.5177C52.3348 28.1831 52.9695 28.0159 53.6987 28.0161C54.1693 28.0162 54.6134 28.0926 55.031 28.2451C55.4519 28.3944 55.823 28.6265 56.1444 28.9415C56.4692 29.2564 56.7243 29.6575 56.9097 30.1448C57.0952 30.6288 57.1879 31.2055 57.1877 31.875L57.1875 32.4268L50.9283 32.4251L50.9286 31.212L55.4627 31.2133C55.4595 30.8686 55.385 30.562 55.2392 30.2935C55.0935 30.0217 54.8897 29.8078 54.6279 29.652C54.3694 29.4961 54.0678 29.4182 53.7231 29.4181C53.3552 29.418 53.0321 29.5074 52.7536 29.6863C52.4752 29.8619 52.258 30.0938 52.1021 30.3821C51.9496 30.6671 51.8716 30.9803 51.8682 31.3217L51.8679 32.3806C51.8678 32.8248 51.9489 33.2059 52.1112 33.5242C52.2735 33.8391 52.5005 34.0811 52.7921 34.2502C53.0837 34.416 53.4251 34.4989 53.8162 34.4991C54.078 34.4991 54.315 34.4627 54.5272 34.3899C54.7393 34.3137 54.9233 34.2027 55.0791 34.0569C55.2349 33.9111 55.3526 33.7305 55.4322 33.5151L57.1126 33.7045C57.0064 34.1486 56.8041 34.5363 56.5057 34.8677C56.2107 35.1957 55.8328 35.4508 55.372 35.633C54.9112 35.8119 54.3842 35.9012 53.791 35.901ZM64.7462 30.137L63.1055 30.3155C63.0592 30.1498 62.978 29.994 62.8621 29.8481C62.7494 29.7023 62.597 29.5846 62.4048 29.495C62.2126 29.4055 61.9772 29.3607 61.6988 29.3606C61.3243 29.3605 61.0094 29.4416 60.7542 29.604C60.5022 29.7663 60.3779 29.9767 60.3811 30.2352C60.3777 30.4573 60.4589 30.638 60.6246 30.7772C60.7936 30.9165 61.072 31.0309 61.4597 31.1205L62.7622 31.3993C63.4847 31.5552 64.0216 31.8023 64.3728 32.1405C64.7273 32.4786 64.9062 32.9212 64.9094 33.468C64.9059 33.9486 64.7649 34.3728 64.4864 34.7406C64.2112 35.1051 63.8283 35.3901 63.3377 35.5954C62.8472 35.8008 62.2837 35.9034 61.6473 35.9032C60.7127 35.903 59.9603 35.7072 59.3904 35.3159C58.8204 34.9214 58.4808 34.3727 58.3717 33.6701L60.1267 33.5015C60.2061 33.8462 60.3751 34.1065 60.6336 34.2822C60.892 34.4579 61.2284 34.5458 61.6427 34.546C62.0703 34.5461 62.4133 34.4583 62.6719 34.2828C62.9338 34.1072 63.0648 33.8901 63.0648 33.6316C63.0649 33.4128 62.9804 33.2322 62.8114 33.0896C62.6458 32.947 62.3873 32.8376 62.036 32.7613L60.7335 32.4875C60.001 32.3348 59.4592 32.0778 59.108 31.7164C58.7568 31.3517 58.5829 30.891 58.5864 30.3342C58.5832 29.8635 58.7109 29.4559 58.9695 29.1113C59.2314 28.7633 59.5944 28.495 60.0585 28.3062C60.5259 28.1141 61.0645 28.0181 61.6744 28.0183C62.5692 28.0185 63.2735 28.2093 63.7871 28.5906C64.3041 28.9719 64.6238 29.4874 64.7462 30.137Z" fill="#5C616F"/>
<path d="M255.687 66.6258L255.692 48.444L256.857 48.4443L256.852 66.6261L255.687 66.6258ZM258.78 54.4462C258.723 53.8733 258.48 53.4282 258.049 53.1108C257.618 52.7935 257.033 52.6347 256.295 52.6345C255.793 52.6343 255.369 52.7053 255.023 52.8472C254.678 52.9844 254.413 53.1761 254.228 53.4223C254.048 53.6684 253.958 53.9478 253.958 54.2603C253.948 54.5207 254.003 54.748 254.121 54.9421C254.244 55.1363 254.412 55.3044 254.625 55.4465C254.838 55.5839 255.084 55.7047 255.364 55.8089C255.643 55.9085 255.941 55.9938 256.258 56.0649L257.565 56.3777C258.2 56.52 258.782 56.7095 259.312 56.9464C259.842 57.1833 260.302 57.4746 260.69 57.8204C261.078 58.1661 261.378 58.5734 261.591 59.0422C261.809 59.511 261.92 60.0484 261.925 60.6545C261.92 61.5447 261.692 62.3164 261.242 62.9697C260.797 63.6182 260.153 64.1223 259.31 64.4819C258.472 64.8368 257.461 65.0141 256.277 65.0137C255.103 65.0134 254.08 64.8332 253.209 64.4731C252.343 64.113 251.666 63.5802 251.178 62.8745C250.696 62.1642 250.443 61.2858 250.419 60.2394L253.395 60.2402C253.428 60.7279 253.568 61.1352 253.814 61.4619C254.065 61.784 254.398 62.0279 254.815 62.1937C255.236 62.3548 255.712 62.4355 256.242 62.4356C256.763 62.4357 257.215 62.3601 257.599 62.2087C257.987 62.0573 258.288 61.8467 258.501 61.5769C258.714 61.307 258.821 60.9969 258.821 60.6465C258.821 60.3198 258.724 60.0452 258.53 59.8226C258.341 59.6 258.061 59.4105 257.692 59.2542C257.328 59.0978 256.88 58.9557 256.35 58.8277L254.766 58.4295C253.54 58.1309 252.572 57.6642 251.862 57.0296C251.152 56.3949 250.799 55.5402 250.804 54.4654C250.8 53.5847 251.034 52.8153 251.508 52.1573C251.986 51.4993 252.642 50.9857 253.476 50.6167C254.309 50.2476 255.256 50.0632 256.317 50.0635C257.396 50.0638 258.339 50.2487 259.143 50.6182C259.953 50.9878 260.583 51.5017 261.032 52.1599C261.482 52.8182 261.714 53.5806 261.728 54.4471L258.78 54.4462ZM263.907 64.8099L263.907 62.594L269.086 57.8014C269.527 57.3754 269.896 56.9919 270.195 56.6511C270.498 56.3103 270.727 55.9765 270.884 55.6499C271.04 55.3185 271.118 54.961 271.118 54.5775C271.119 54.1514 271.022 53.7844 270.828 53.4766C270.634 53.164 270.368 52.9248 270.032 52.759C269.696 52.5885 269.315 52.5031 268.889 52.503C268.444 52.5029 268.056 52.5927 267.724 52.7726C267.393 52.9524 267.137 53.2104 266.957 53.5465C266.777 53.8826 266.687 54.2827 266.687 54.7467L263.768 54.7459C263.768 53.7942 263.984 52.968 264.415 52.2674C264.846 51.5668 265.449 51.0248 266.226 50.6415C267.003 50.2582 267.898 50.0667 268.911 50.0669C269.953 50.0672 270.859 50.2521 271.631 50.6217C272.407 50.9865 273.011 51.4933 273.442 52.1421C273.872 52.7909 274.088 53.5343 274.087 54.3724C274.087 54.9216 273.978 55.4637 273.76 55.9987C273.547 56.5337 273.166 57.1278 272.616 57.781C272.067 58.4296 271.292 59.2082 270.293 60.117L268.169 62.1974L268.169 62.2969L274.277 62.2985L274.276 64.8127L263.907 64.8099ZM281.771 50.0705C282.519 50.0707 283.239 50.1964 283.93 50.4475C284.626 50.6986 285.246 51.0989 285.791 51.6483C286.34 52.1977 286.773 52.927 287.09 53.8362C287.412 54.7406 287.575 55.851 287.579 57.1673C287.579 58.4031 287.439 59.5062 287.159 60.4768C286.884 61.4426 286.489 62.264 285.972 62.941C285.456 63.6179 284.833 64.1338 284.104 64.4888C283.375 64.8389 282.56 65.0139 281.661 65.0136C280.69 65.0134 279.833 64.8261 279.09 64.4519C278.347 64.0729 277.748 63.559 277.293 62.9102C276.844 62.2566 276.572 61.5227 276.477 60.7082L279.51 60.7091C279.628 61.2394 279.877 61.6514 280.255 61.9451C280.634 62.234 281.103 62.3785 281.661 62.3787C282.608 62.379 283.328 61.9672 283.821 61.1435C284.314 60.315 284.562 59.1811 284.568 57.7417L284.468 57.7417C284.25 58.1678 283.957 58.5346 283.587 58.8423C283.218 59.1452 282.794 59.3795 282.316 59.5451C281.842 59.7107 281.338 59.7934 280.803 59.7932C279.946 59.793 279.181 59.5916 278.509 59.1889C277.837 58.7863 277.307 58.2321 276.918 57.5265C276.53 56.8209 276.336 56.016 276.337 55.1116C276.332 54.1362 276.557 53.2674 277.012 52.5053C277.467 51.7431 278.102 51.1467 278.916 50.716C279.735 50.2806 280.687 50.0655 281.771 50.0705ZM281.792 52.4853C281.314 52.4851 280.888 52.5987 280.514 52.8258C280.144 53.053 279.85 53.3583 279.633 53.7418C279.419 54.1252 279.315 54.5537 279.32 55.0272C279.32 55.5054 279.424 55.9363 279.632 56.3199C279.845 56.6988 280.134 57.0019 280.498 57.2292C280.867 57.4519 281.289 57.5633 281.762 57.5634C282.117 57.5635 282.446 57.4973 282.749 57.3648C283.053 57.2323 283.315 57.0501 283.538 56.8181C283.765 56.5815 283.943 56.3093 284.071 56.0015C284.199 55.6938 284.263 55.3671 284.263 55.0215C284.258 54.5622 284.15 54.1408 283.937 53.7572C283.724 53.3736 283.43 53.0657 283.056 52.8336C282.682 52.6015 282.261 52.4854 281.792 52.4853ZM292.439 62.8291L292.361 63.6104C292.299 64.2353 292.18 64.8579 292.005 65.4782C291.834 66.1031 291.654 66.6689 291.465 67.1754C291.28 67.682 291.131 68.0797 291.017 68.3685L289.057 68.368C289.128 68.0886 289.225 67.698 289.348 67.1962C289.472 66.699 289.588 66.1404 289.697 65.5201C289.806 64.8999 289.875 64.2678 289.903 63.6239L289.939 62.8284L292.439 62.8291ZM299.692 50.2743L299.688 64.8198L296.613 64.8189L296.616 53.1925L296.531 53.1925L293.199 55.2796L293.2 52.5523L296.801 50.2735L299.692 50.2743ZM303.145 64.8207L303.146 62.6048L308.325 57.8122C308.765 57.3862 309.135 57.0028 309.433 56.6619C309.736 56.3211 309.966 55.9874 310.122 55.6607C310.278 55.3293 310.357 54.9719 310.357 54.5883C310.357 54.1622 310.26 53.7952 310.066 53.4874C309.872 53.1748 309.607 52.9357 309.271 52.7698C308.934 52.5993 308.553 52.514 308.127 52.5139C307.682 52.5137 307.294 52.6036 306.962 52.7834C306.631 52.9632 306.375 53.2212 306.195 53.5574C306.015 53.8935 305.925 54.2935 305.925 54.7576L303.006 54.7568C303.006 53.8051 303.222 52.9789 303.653 52.2782C304.084 51.5776 304.688 51.0356 305.464 50.6523C306.241 50.269 307.136 50.0775 308.149 50.0778C309.191 50.0781 310.098 50.263 310.869 50.6325C311.646 50.9973 312.249 51.5041 312.68 52.1529C313.111 52.8017 313.326 53.5451 313.326 54.3832C313.325 54.9324 313.216 55.4745 312.998 56.0095C312.785 56.5445 312.404 57.1386 311.854 57.7919C311.305 58.4404 310.531 59.2191 309.531 60.1279L307.407 62.2083L307.407 62.3077L313.515 62.3094L313.514 64.8236L303.145 64.8207ZM321.169 65.0246C320.075 65.0243 319.102 64.8464 318.25 64.4911C317.403 64.131 316.737 63.6408 316.255 63.0204C315.772 62.4 315.531 61.6968 315.531 60.9108C315.531 60.3047 315.668 59.7484 315.943 59.2419C316.223 58.7306 316.602 58.3069 317.08 57.9709C317.558 57.6301 318.093 57.4124 318.685 57.3179L318.685 57.2185C317.909 57.062 317.279 56.6854 316.796 56.0887C316.314 55.4872 316.072 54.7888 316.072 53.9933C316.073 53.2405 316.293 52.5706 316.734 51.9836C317.174 51.3918 317.778 50.928 318.545 50.592C319.317 50.2513 320.193 50.0811 321.173 50.0814C322.153 50.0816 323.027 50.2523 323.794 50.5935C324.565 50.9346 325.171 51.4011 325.611 51.9931C326.052 52.5804 326.274 53.248 326.278 53.9961C326.273 54.7963 326.027 55.4946 325.539 56.0911C325.051 56.6876 324.426 57.0638 323.664 57.2198L323.664 57.3193C324.246 57.4141 324.774 57.6321 325.248 57.9731C325.726 58.3094 326.104 58.7333 326.384 59.2447C326.667 59.7515 326.812 60.3078 326.816 60.9139C326.811 61.6999 326.567 62.4029 326.084 63.0231C325.601 63.6432 324.933 64.1331 324.081 64.4927C323.233 64.8476 322.263 65.0249 321.169 65.0246ZM321.169 62.766C321.657 62.7662 322.083 62.6787 322.448 62.5036C322.813 62.3238 323.097 62.0776 323.3 61.7652C323.509 61.448 323.613 61.0835 323.613 60.6715C323.613 60.2501 323.507 59.8784 323.294 59.5564C323.081 59.2296 322.792 58.9739 322.428 58.7891C322.063 58.5996 321.644 58.5048 321.171 58.5047C320.702 58.5045 320.283 58.5991 319.913 58.7884C319.544 58.973 319.253 59.2286 319.04 59.5552C318.831 59.8771 318.727 60.2488 318.727 60.6702C318.727 61.0821 318.828 61.4467 319.032 61.764C319.235 62.0766 319.522 62.3229 319.891 62.5029C320.26 62.6782 320.687 62.7659 321.169 62.766ZM321.171 56.2675C321.578 56.2676 321.941 56.1848 322.258 56.0192C322.575 55.8535 322.824 55.624 323.004 55.3305C323.184 55.0369 323.274 54.6984 323.274 54.3149C323.274 53.9361 323.184 53.6047 323.004 53.3205C322.825 53.0316 322.578 52.8067 322.266 52.6456C321.954 52.4798 321.589 52.3968 321.172 52.3967C320.76 52.3966 320.396 52.4794 320.079 52.645C319.761 52.8059 319.513 53.0307 319.333 53.3195C319.157 53.6035 319.07 53.935 319.07 54.3137C319.069 54.6973 319.159 55.0358 319.339 55.3294C319.519 55.6231 319.768 55.8528 320.085 56.0186C320.402 56.1844 320.764 56.2673 321.171 56.2675Z" fill="white"/>
<path d="M310.091 86.1863L310.091 87.1806L305.974 87.1795L305.974 86.1851L310.091 86.1863ZM307.205 93.8218L307.208 85.1315C307.208 84.694 307.311 84.3295 307.516 84.0378C307.722 83.7462 307.989 83.5276 308.317 83.3818C308.645 83.2361 308.991 83.1633 309.356 83.1634C309.644 83.1634 309.879 83.1867 310.062 83.2331C310.244 83.2796 310.38 83.3227 310.469 83.3625L310.131 84.3766C310.071 84.3567 309.989 84.3319 309.882 84.302C309.78 84.2721 309.644 84.2572 309.475 84.2571C309.087 84.257 308.807 84.3547 308.635 84.5502C308.465 84.7457 308.381 85.0324 308.381 85.4102L308.378 93.8222L307.205 93.8218ZM311.233 93.823L311.235 86.1866L312.369 86.1869L312.368 87.3403L312.448 87.3403C312.587 86.9625 312.839 86.656 313.204 86.4208C313.568 86.1856 313.979 86.068 314.437 86.0682C314.523 86.0682 314.631 86.0699 314.76 86.0732C314.889 86.0766 314.987 86.0816 315.053 86.0882L315.053 87.2814C315.013 87.2714 314.922 87.2565 314.78 87.2366C314.64 87.2133 314.493 87.2017 314.337 87.2017C313.966 87.2016 313.634 87.2794 313.343 87.435C313.054 87.5874 312.826 87.7995 312.656 88.0712C312.491 88.3396 312.408 88.6462 312.408 88.9909L312.406 93.8233L311.233 93.823ZM318.812 93.9841C318.122 93.984 317.518 93.8197 316.997 93.4915C316.48 93.1632 316.076 92.704 315.785 92.114C315.496 91.5239 315.352 90.8345 315.353 90.0457C315.353 89.2502 315.497 88.5559 315.786 87.9627C316.078 87.3695 316.482 86.9089 316.999 86.5809C317.52 86.253 318.125 86.0891 318.814 86.0893C319.503 86.0894 320.107 86.2537 320.624 86.5819C321.144 86.9102 321.548 87.371 321.836 87.9644C322.128 88.5577 322.273 89.2521 322.273 90.0476C322.273 90.8364 322.127 91.5258 321.835 92.1157C321.547 92.7055 321.142 93.1645 320.622 93.4925C320.104 93.8204 319.501 93.9843 318.812 93.9841ZM318.812 92.9302C319.336 92.9303 319.767 92.7962 320.105 92.5278C320.443 92.2595 320.693 91.9065 320.856 91.4691C321.018 91.0316 321.1 90.5577 321.1 90.0473C321.1 89.5369 321.019 89.0612 320.857 88.6204C320.694 88.1795 320.444 87.8231 320.106 87.5513C319.768 87.2794 319.337 87.1434 318.814 87.1432C318.29 87.1431 317.859 87.2789 317.521 87.5505C317.183 87.8222 316.932 88.1785 316.77 88.6192C316.607 89.06 316.526 89.5356 316.526 90.046C316.526 90.5564 316.607 91.0304 316.769 91.468C316.931 91.9055 317.182 92.2586 317.52 92.5271C317.858 92.7957 318.288 92.93 318.812 92.9302ZM323.563 93.8264L323.565 86.19L324.699 86.1903L324.698 87.3835L324.798 87.3835C324.957 86.9759 325.214 86.6594 325.569 86.4342C325.923 86.2056 326.349 86.0913 326.846 86.0915C327.35 86.0916 327.77 86.2061 328.104 86.4349C328.442 86.6603 328.706 86.9769 328.894 87.3847L328.974 87.3847C329.17 86.9903 329.463 86.6772 329.854 86.4453C330.245 86.2101 330.714 86.0925 331.261 86.0927C331.944 86.0929 332.502 86.3068 332.937 86.7345C333.371 87.1589 333.587 87.8201 333.587 88.7183L333.586 93.8291L332.413 93.8288L332.414 88.718C332.414 88.1546 332.26 87.7518 331.952 87.5098C331.644 87.2678 331.281 87.1467 330.863 87.1466C330.326 87.1464 329.91 87.3087 329.615 87.6334C329.32 87.9548 329.173 88.3625 329.172 88.8563L329.171 93.8279L327.978 93.8276L327.979 88.5975C327.979 88.1633 327.839 87.8136 327.557 87.5483C327.275 87.2798 326.912 87.1455 326.468 87.1453C326.163 87.1453 325.878 87.2264 325.613 87.3887C325.351 87.5511 325.139 87.7764 324.977 88.0647C324.817 88.3497 324.738 88.6794 324.738 89.054L324.736 93.8267L323.563 93.8264ZM339.845 83.649L339.842 93.8309L338.669 93.8305L338.671 83.6487L339.845 83.649ZM343.738 94.0109C343.254 94.0108 342.815 93.9195 342.421 93.7371C342.026 93.5514 341.713 93.2845 341.481 92.9364C341.249 92.585 341.133 92.1608 341.133 91.6636C341.134 91.2261 341.22 90.8715 341.392 90.5998C341.565 90.3247 341.795 90.1093 342.084 89.9536C342.372 89.7979 342.69 89.682 343.038 89.6059C343.39 89.5264 343.743 89.4636 344.097 89.4173C344.561 89.3577 344.937 89.3131 345.226 89.2833C345.517 89.2503 345.73 89.1956 345.862 89.1195C345.998 89.0433 346.066 88.9107 346.066 88.7218L346.066 88.682C346.066 88.1915 345.932 87.8103 345.664 87.5384C345.399 87.2666 344.996 87.1306 344.456 87.1304C343.896 87.1303 343.456 87.2528 343.138 87.498C342.82 87.7431 342.596 88.0049 342.467 88.2833L341.353 87.8853C341.552 87.4213 341.818 87.0601 342.149 86.8017C342.484 86.5399 342.848 86.3577 343.243 86.2551C343.641 86.1491 344.032 86.0962 344.416 86.0963C344.662 86.0964 344.943 86.1263 345.261 86.186C345.583 86.2425 345.893 86.3602 346.191 86.5393C346.493 86.7183 346.743 86.9885 346.941 87.3499C347.14 87.7112 347.24 88.1951 347.239 88.8017L347.238 93.8329L346.065 93.8326L346.065 92.7985L346.005 92.7985C345.926 92.9642 345.793 93.1415 345.607 93.3303C345.422 93.5192 345.175 93.6799 344.867 93.8124C344.558 93.9449 344.182 94.011 343.738 94.0109ZM343.917 92.957C344.381 92.9571 344.772 92.8661 345.091 92.6839C345.412 92.5017 345.654 92.2664 345.817 91.9781C345.982 91.6898 346.065 91.3866 346.065 91.0684L346.066 89.9945C346.016 90.0542 345.907 90.1088 345.738 90.1585C345.572 90.2048 345.38 90.2462 345.161 90.2826C344.945 90.3157 344.735 90.3455 344.529 90.3719C344.327 90.3951 344.163 90.4149 344.037 90.4314C343.732 90.4711 343.447 90.5357 343.182 90.6251C342.92 90.7112 342.708 90.8421 342.546 91.0177C342.386 91.19 342.307 91.4253 342.307 91.7236C342.307 92.1313 342.457 92.4395 342.759 92.6484C343.064 92.854 343.45 92.9569 343.917 92.957ZM354.29 87.9087L353.236 88.2067C353.17 88.031 353.072 87.8603 352.943 87.6946C352.817 87.5255 352.645 87.3862 352.426 87.2768C352.207 87.1674 351.927 87.1126 351.586 87.1125C351.119 87.1124 350.729 87.22 350.417 87.4353C350.109 87.6474 349.955 87.9175 349.955 88.2456C349.955 88.5372 350.061 88.7676 350.273 88.9367C350.485 89.1058 350.816 89.2468 351.267 89.3596L352.401 89.6383C353.083 89.8042 353.592 90.0579 353.927 90.3994C354.261 90.7375 354.429 91.1734 354.428 91.707C354.428 92.1445 354.302 92.5356 354.05 92.8802C353.802 93.2249 353.453 93.4965 353.006 93.6953C352.558 93.894 352.038 93.9933 351.445 93.9932C350.666 93.9929 350.021 93.8237 349.511 93.4855C349.001 93.1473 348.678 92.6534 348.542 92.0037L349.656 91.7256C349.762 92.1366 349.962 92.4449 350.257 92.6505C350.555 92.8561 350.945 92.9589 351.425 92.9591C351.972 92.9592 352.406 92.8433 352.728 92.6114C353.053 92.3762 353.215 92.0945 353.215 91.7664C353.215 91.5012 353.123 91.2791 352.937 91.1001C352.752 90.9178 352.467 90.7818 352.082 90.6922L350.809 90.3935C350.11 90.2276 349.596 89.9706 349.268 89.6225C348.944 89.2711 348.781 88.8319 348.782 88.3049C348.782 87.874 348.903 87.4929 349.145 87.1616C349.39 86.8302 349.723 86.5701 350.144 86.3813C350.569 86.1925 351.049 86.0982 351.586 86.0983C352.342 86.0985 352.935 86.2644 353.366 86.596C353.8 86.9275 354.108 87.3651 354.29 87.9087ZM359.017 86.1998L359.017 87.1941L355.059 87.193L355.06 86.1987L359.017 86.1998ZM356.214 84.3695L357.387 84.3698L357.385 91.6482C357.385 91.9796 357.433 92.2282 357.529 92.394C357.628 92.5564 357.754 92.6658 357.907 92.7222C358.062 92.7753 358.226 92.8018 358.399 92.8019C358.528 92.8019 358.634 92.7953 358.717 92.7821C358.8 92.7655 358.866 92.7523 358.916 92.7424L359.154 93.7964C359.075 93.8262 358.964 93.856 358.821 93.8858C358.679 93.9189 358.498 93.9354 358.279 93.9354C357.948 93.9353 357.623 93.8639 357.305 93.7213C356.99 93.5787 356.728 93.3616 356.519 93.0698C356.314 92.7781 356.211 92.4102 356.212 91.9661L356.214 84.3695ZM364.472 96.7013C364.273 96.7012 364.096 96.6846 363.94 96.6514C363.785 96.6216 363.677 96.5917 363.617 96.5619L363.916 95.5278C364.201 95.6008 364.453 95.6274 364.671 95.6076C364.89 95.5878 365.084 95.4901 365.253 95.3144C365.426 95.1421 365.583 94.8621 365.726 94.4744L365.945 93.8778L363.123 86.2009L364.396 86.2013L366.502 92.2871L366.581 92.2871L368.691 86.2025L369.964 86.2028L366.72 94.9519C366.574 95.3463 366.393 95.6727 366.178 95.9312C365.962 96.1929 365.712 96.3868 365.427 96.5126C365.145 96.6385 364.827 96.7014 364.472 96.7013ZM373.939 93.9994C373.203 93.9992 372.568 93.8366 372.035 93.5116C371.504 93.1834 371.095 92.7259 370.807 92.1391C370.522 91.5491 370.38 90.863 370.38 90.0808C370.38 89.2986 370.523 88.6092 370.808 88.0127C371.097 87.4129 371.498 86.9457 372.012 86.611C372.529 86.2731 373.132 86.1043 373.821 86.1044C374.219 86.1046 374.612 86.171 375 86.3036C375.387 86.4363 375.74 86.6518 376.058 86.9502C376.377 87.2453 376.63 87.6365 376.819 88.1237C377.008 88.611 377.102 89.2109 377.102 89.9235L377.102 90.4207L371.215 90.4191L371.215 89.4049L375.909 89.4062C375.909 88.9753 375.823 88.5908 375.65 88.2527C375.481 87.9146 375.24 87.6477 374.925 87.4521C374.613 87.2564 374.245 87.1585 373.821 87.1584C373.354 87.1583 372.949 87.2742 372.608 87.5061C372.27 87.7347 372.01 88.0329 371.827 88.4008C371.645 88.7686 371.554 89.163 371.553 89.5839L371.553 90.2601C371.553 90.8368 371.652 91.3257 371.851 91.7268C372.053 92.1246 372.333 92.4279 372.691 92.6368C373.049 92.8424 373.465 92.9453 373.939 92.9454C374.247 92.9455 374.526 92.9025 374.774 92.8164C375.026 92.7269 375.243 92.5944 375.426 92.4188C375.608 92.2399 375.749 92.0179 375.848 91.7527L376.982 92.0712C376.862 92.4557 376.662 92.7937 376.38 93.0853C376.098 93.3735 375.75 93.5988 375.336 93.7611C374.921 93.9201 374.456 93.9995 373.939 93.9994ZM380.632 94.0211C380.149 94.021 379.709 93.9297 379.315 93.7473C378.921 93.5616 378.608 93.2947 378.376 92.9466C378.144 92.5952 378.028 92.1709 378.028 91.6738C378.028 91.2363 378.114 90.8817 378.287 90.6099C378.459 90.3349 378.69 90.1195 378.978 89.9638C379.266 89.8081 379.585 89.6922 379.933 89.6161C380.284 89.5366 380.637 89.4738 380.992 89.4274C381.456 89.3679 381.832 89.3233 382.12 89.2935C382.412 89.2605 382.624 89.2058 382.757 89.1296C382.893 89.0534 382.961 88.9209 382.961 88.732L382.961 88.6922C382.961 88.2017 382.827 87.8205 382.558 87.5486C382.293 87.2768 381.891 87.1408 381.35 87.1406C380.79 87.1405 380.351 87.263 380.033 87.5081C379.714 87.7533 379.491 88.0151 379.361 88.2935L378.248 87.8954C378.447 87.4315 378.712 87.0703 379.044 86.8119C379.378 86.5501 379.743 86.3679 380.137 86.2653C380.535 86.1593 380.926 86.1064 381.311 86.1065C381.556 86.1066 381.838 86.1365 382.156 86.1962C382.477 86.2527 382.787 86.3704 383.086 86.5495C383.387 86.7285 383.637 86.9987 383.836 87.3601C384.035 87.7214 384.134 88.2053 384.134 88.8118L384.133 93.8431L382.959 93.8428L382.96 92.8087L382.9 92.8087C382.82 92.9744 382.688 93.1516 382.502 93.3405C382.316 93.5294 382.069 93.6901 381.761 93.8225C381.453 93.955 381.077 94.0212 380.632 94.0211ZM380.812 92.9672C381.276 92.9673 381.667 92.8763 381.985 92.6941C382.307 92.5119 382.549 92.2766 382.711 91.9883C382.877 91.7 382.96 91.3967 382.96 91.0786L382.96 90.0047C382.911 90.0643 382.801 90.119 382.632 90.1687C382.466 90.215 382.274 90.2564 382.055 90.2928C381.84 90.3259 381.629 90.3557 381.424 90.3821C381.222 90.4053 381.058 90.4251 380.932 90.4416C380.627 90.4813 380.342 90.5459 380.077 90.6353C379.815 90.7214 379.603 90.8523 379.44 91.0279C379.281 91.2002 379.201 91.4355 379.201 91.7338C379.201 92.1414 379.352 92.4497 379.653 92.6586C379.958 92.8642 380.344 92.967 380.812 92.9672ZM385.774 93.8435L385.776 86.2072L386.91 86.2075L386.909 87.3609L386.989 87.3609C387.128 86.9831 387.38 86.6766 387.745 86.4414C388.109 86.2062 388.52 86.0886 388.978 86.0887C389.064 86.0888 389.172 86.0905 389.301 86.0938C389.43 86.0972 389.528 86.1022 389.594 86.1088L389.594 87.302C389.554 87.292 389.463 87.2771 389.321 87.2572C389.181 87.2339 389.034 87.2223 388.878 87.2222C388.507 87.2221 388.175 87.2999 387.884 87.4556C387.595 87.608 387.367 87.8201 387.197 88.0918C387.032 88.3602 386.949 88.6668 386.949 89.0115L386.947 93.8439L385.774 93.8435Z" fill="#5C616E"/>
<path d="M272.011 83.63L272.008 93.8118L270.163 93.8113L270.166 85.4242L270.106 85.4242L267.724 86.9448L267.725 85.2545L270.256 83.6295L272.011 83.63ZM275.161 93.922C274.859 93.9219 274.601 93.8158 274.386 93.6036C274.17 93.3915 274.064 93.1329 274.068 92.828C274.064 92.5297 274.17 92.2745 274.386 92.0624C274.601 91.8504 274.86 91.7444 275.162 91.7445C275.453 91.7446 275.707 91.8507 275.922 92.0629C276.141 92.275 276.252 92.5303 276.255 92.8286C276.252 93.0308 276.199 93.2147 276.096 93.3804C275.996 93.5461 275.864 93.6786 275.698 93.778C275.536 93.8741 275.357 93.9221 275.161 93.922ZM278.093 93.8135L278.093 92.4811L281.629 89.0169C281.967 88.6756 282.249 88.3724 282.475 88.1073C282.7 87.8422 282.869 87.5854 282.982 87.3368C283.095 87.0883 283.151 86.8231 283.151 86.5414C283.151 86.2199 283.078 85.9448 282.933 85.7161C282.787 85.484 282.586 85.305 282.331 85.179C282.076 85.053 281.786 84.9899 281.461 84.9898C281.127 84.9897 280.833 85.0593 280.581 85.1984C280.329 85.3342 280.134 85.528 279.994 85.7799C279.858 86.0318 279.79 86.3317 279.79 86.6797L278.035 86.6792C278.036 86.0329 278.183 85.4712 278.478 84.994C278.773 84.5168 279.18 84.1473 279.697 83.8856C280.217 83.6239 280.814 83.4932 281.487 83.4934C282.169 83.4936 282.769 83.6213 283.286 83.8767C283.803 84.132 284.204 84.4818 284.489 84.926C284.777 85.3702 284.921 85.8774 284.921 86.4475C284.921 86.8286 284.848 87.2031 284.702 87.571C284.556 87.9388 284.299 88.3464 283.931 88.7938C283.566 89.2411 283.054 89.7829 282.394 90.4191L280.639 92.2034L280.639 92.273L285.074 92.2742L285.073 93.8154L278.093 93.8135ZM292.233 91.9083L292.233 91.3713C292.233 90.9769 292.316 90.614 292.482 90.2826C292.651 89.9512 292.896 89.6845 293.218 89.4824C293.539 89.2803 293.929 89.1793 294.386 89.1795C294.857 89.1796 295.251 89.2808 295.569 89.4831C295.888 89.682 296.128 89.9472 296.29 90.2787C296.456 90.6102 296.538 90.9748 296.538 91.3725L296.538 91.9095C296.538 92.3039 296.455 92.6668 296.289 92.9982C296.124 93.3296 295.88 93.5963 295.558 93.7984C295.24 94.0005 294.849 94.1015 294.385 94.1013C293.921 94.1012 293.528 94 293.207 93.7978C292.885 93.5955 292.642 93.3286 292.476 92.9971C292.314 92.6656 292.233 92.3027 292.233 91.9083ZM293.531 91.3717L293.53 91.9086C293.53 92.1705 293.593 92.4108 293.719 92.6296C293.845 92.8484 294.067 92.9578 294.385 92.9579C294.707 92.958 294.927 92.8503 295.047 92.6349C295.169 92.4162 295.231 92.1743 295.231 91.9091L295.231 91.3722C295.231 91.107 295.173 90.8651 295.057 90.6463C294.941 90.4242 294.717 90.3131 294.386 90.313C294.074 90.3129 293.854 90.4239 293.725 90.6459C293.595 90.8646 293.531 91.1066 293.531 91.3717ZM287.059 86.0801L287.059 85.5432C287.059 85.1455 287.144 84.7809 287.313 84.4495C287.482 84.1181 287.727 83.8531 288.049 83.6543C288.371 83.4522 288.76 83.3512 289.217 83.3513C289.685 83.3515 290.077 83.4527 290.396 83.6549C290.717 83.8539 290.959 84.1191 291.121 84.4506C291.284 84.7821 291.365 85.1467 291.365 85.5444L291.364 86.0813C291.364 86.4791 291.281 86.8436 291.116 87.175C290.953 87.5031 290.711 87.7665 290.389 87.9653C290.068 88.1641 289.677 88.2634 289.216 88.2633C288.749 88.2631 288.354 88.1636 288.033 87.9646C287.715 87.7657 287.473 87.5005 287.307 87.169C287.142 86.8375 287.059 86.4746 287.059 86.0801ZM288.367 85.5436L288.367 86.0805C288.366 86.3457 288.428 86.5876 288.55 86.8064C288.676 87.0219 288.898 87.1297 289.216 87.1297C289.535 87.1298 289.753 87.0222 289.873 86.8068C289.995 86.5881 290.057 86.3461 290.057 86.081L290.057 85.544C290.057 85.2789 289.999 85.0369 289.883 84.8181C289.767 84.596 289.545 84.485 289.217 84.4849C288.902 84.4848 288.682 84.5957 288.556 84.8178C288.43 85.0398 288.367 85.2817 288.367 85.5436ZM287.624 93.8161L294.626 83.6362L295.869 83.6366L288.867 93.8164L287.624 93.8161Z" fill="#E35454"/>
<g clip-path="url(#clip1_256_1112)">
<path d="M251.86 89.5284L255.581 93.3071L259.36 89.586" stroke="#E35454" stroke-width="2" stroke-linecap="round" stroke-linejoin="round"/>
<path d="M255.65 84.3073L255.581 93.3071" stroke="#E35454" stroke-width="2" stroke-linecap="round"/>
</g>
<path d="M250.637 25.6244L252.894 25.625L255.915 33.0037L256.034 33.0037L259.059 25.6267L261.316 25.6273L261.313 35.8092L259.543 35.8087L259.545 28.8136L259.451 28.8136L256.635 35.778L255.313 35.7777L252.501 28.7968L252.406 28.7968L252.404 35.8067L250.634 35.8062L250.637 25.6244ZM265.44 35.9644C264.956 35.9643 264.52 35.878 264.132 35.7055C263.748 35.5298 263.443 35.2712 263.218 34.9297C262.996 34.5883 262.885 34.1673 262.885 33.6668C262.885 33.236 262.965 32.8797 263.124 32.598C263.283 32.3163 263.5 32.091 263.775 31.9221C264.051 31.7531 264.36 31.6256 264.705 31.5395C265.053 31.4501 265.413 31.3856 265.784 31.3459C266.232 31.2996 266.594 31.2583 266.873 31.2219C267.151 31.1822 267.353 31.1226 267.479 31.0431C267.609 30.9603 267.673 30.8327 267.673 30.6604L267.673 30.6305C267.674 30.256 267.563 29.966 267.341 29.7604C267.119 29.5548 266.799 29.452 266.381 29.4519C265.94 29.4518 265.591 29.5478 265.332 29.74C265.077 29.9321 264.904 30.1591 264.815 30.4209L263.135 30.1818C263.267 29.7178 263.486 29.3301 263.791 29.0187C264.096 28.7039 264.469 28.4687 264.91 28.313C265.351 28.154 265.838 28.0746 266.372 28.0748C266.74 28.0749 267.106 28.1181 267.47 28.2043C267.835 28.2906 268.168 28.4332 268.469 28.6322C268.771 28.8278 269.013 29.0947 269.195 29.4328C269.381 29.7709 269.473 30.1935 269.473 30.7006L269.472 35.8114L267.742 35.8109L267.742 34.7619L267.682 34.7619C267.573 34.974 267.419 35.1728 267.22 35.3584C267.024 35.5406 266.777 35.688 266.479 35.8006C266.184 35.9099 265.837 35.9645 265.44 35.9644ZM265.907 34.6421C266.269 34.6422 266.582 34.571 266.847 34.4286C267.112 34.2828 267.316 34.0907 267.459 33.8521C267.605 33.6135 267.678 33.3533 267.678 33.0716L267.678 32.1717C267.622 32.2181 267.526 32.2612 267.39 32.3009C267.257 32.3406 267.108 32.3754 266.942 32.4052C266.776 32.435 266.612 32.4614 266.45 32.4846C266.288 32.5077 266.147 32.5276 266.027 32.5441C265.759 32.5805 265.519 32.6401 265.306 32.7229C265.094 32.8057 264.927 32.9217 264.804 33.0708C264.682 33.2166 264.62 33.4055 264.62 33.6375C264.62 33.9689 264.741 34.2192 264.983 34.3883C265.225 34.5574 265.533 34.642 265.907 34.6421ZM271.281 35.8119L271.284 28.1756L273.029 28.176L273.028 29.4488L273.108 29.4488C273.247 29.008 273.486 28.6683 273.824 28.4298C274.165 28.1879 274.555 28.0671 274.992 28.0672C275.092 28.0672 275.203 28.0722 275.325 28.0822C275.451 28.0889 275.556 28.1005 275.639 28.1171L275.638 29.7726C275.562 29.7461 275.441 29.7229 275.275 29.7029C275.113 29.6797 274.955 29.668 274.803 29.668C274.475 29.6679 274.18 29.7391 273.918 29.8815C273.659 30.0207 273.456 30.2145 273.306 30.463C273.157 30.7116 273.082 30.9983 273.082 31.3231L273.081 35.8124L271.281 35.8119ZM278.473 33.4176L278.469 31.245L278.757 31.2451L281.503 28.1784L283.606 28.179L280.229 31.9365L279.856 31.9364L278.473 33.4176ZM276.832 35.8134L276.835 25.6316L278.635 25.6321L278.632 35.8139L276.832 35.8134ZM281.625 35.8148L279.14 32.3389L280.353 31.0715L283.778 35.8154L281.625 35.8148ZM287.869 35.9656C287.103 35.9654 286.442 35.8062 285.886 35.4878C285.332 35.1662 284.906 34.712 284.608 34.1253C284.31 33.5352 284.161 32.8408 284.161 32.042C284.162 31.2565 284.311 30.5672 284.609 29.974C284.911 29.3775 285.332 28.9136 285.873 28.5823C286.413 28.2477 287.048 28.0805 287.777 28.0807C288.247 28.0808 288.692 28.1572 289.109 28.3097C289.53 28.459 289.901 28.6911 290.223 29.0061C290.547 29.321 290.802 29.7221 290.988 30.2094C291.173 30.6934 291.266 31.2701 291.266 31.9396L291.266 32.4914L285.006 32.4897L285.007 31.2766L289.541 31.2779C289.538 30.9332 289.463 30.6266 289.317 30.3581C289.172 30.0863 288.968 29.8724 288.706 29.7166C288.448 29.5607 288.146 29.4828 287.801 29.4827C287.433 29.4826 287.11 29.572 286.832 29.7509C286.553 29.9265 286.336 30.1584 286.18 30.4467C286.028 30.7317 285.95 31.0449 285.946 31.3863L285.946 32.4452C285.946 32.8894 286.027 33.2705 286.189 33.5888C286.352 33.9037 286.579 34.1457 286.87 34.3148C287.162 34.4806 287.503 34.5636 287.894 34.5637C288.156 34.5637 288.393 34.5273 288.605 34.4545C288.817 34.3783 289.001 34.2673 289.157 34.1215C289.313 33.9757 289.431 33.7951 289.51 33.5797L291.191 33.7691C291.085 34.2132 290.882 34.6009 290.584 34.9323C290.289 35.2603 289.911 35.5154 289.45 35.6976C288.989 35.8765 288.462 35.9658 287.869 35.9656ZM296.603 28.1825L296.602 29.5746L292.212 29.5734L292.213 28.1813L296.603 28.1825ZM293.297 26.3521L295.097 26.3526L295.095 33.5216C295.095 33.7636 295.131 33.9492 295.204 34.0785C295.28 34.2044 295.38 34.2906 295.502 34.3371C295.625 34.3835 295.761 34.4067 295.91 34.4068C296.023 34.4068 296.125 34.3986 296.218 34.382C296.314 34.3655 296.387 34.3506 296.437 34.3373L296.74 35.7444C296.644 35.7775 296.506 35.8139 296.327 35.8536C296.151 35.8934 295.936 35.9165 295.681 35.9231C295.23 35.9362 294.824 35.8681 294.463 35.7189C294.101 35.5663 293.815 35.3309 293.603 35.0127C293.394 34.6944 293.291 34.2967 293.295 33.8194L293.297 26.3521ZM298.106 35.8193L298.108 28.183L299.907 28.1835L299.905 35.8198L298.106 35.8193ZM299.013 27.0994C298.728 27.0993 298.483 27.0048 298.277 26.8158C298.072 26.6235 297.969 26.3931 297.969 26.1247C297.969 25.8529 298.072 25.6226 298.278 25.4337C298.483 25.2415 298.728 25.1455 299.013 25.1456C299.302 25.1456 299.547 25.2418 299.749 25.4341C299.955 25.6231 300.057 25.8535 300.057 26.1253C300.057 26.3937 299.954 26.624 299.749 26.8162C299.547 27.0051 299.301 27.0995 299.013 27.0994ZM303.557 31.3464L303.556 35.8208L301.756 35.8203L301.758 28.184L303.478 28.1844L303.478 29.482L303.567 29.4821C303.743 29.0545 304.023 28.7149 304.408 28.4631C304.796 28.2113 305.275 28.0855 305.845 28.0857C306.372 28.0858 306.831 28.1986 307.222 28.4241C307.616 28.6496 307.921 28.9761 308.136 29.4038C308.355 29.8314 308.463 30.3501 308.459 30.96L308.458 35.8222L306.658 35.8217L306.659 31.2379C306.659 30.7275 306.527 30.328 306.262 30.0396C306 29.7512 305.637 29.6069 305.173 29.6068C304.858 29.6067 304.578 29.6762 304.333 29.8154C304.091 29.9512 303.9 30.1483 303.761 30.4068C303.625 30.6653 303.557 30.9785 303.557 31.3464ZM313.607 38.8463C312.961 38.8461 312.406 38.7582 311.942 38.5824C311.478 38.4099 311.105 38.1778 310.824 37.886C310.542 37.5943 310.347 37.2711 310.237 36.9164L311.858 36.5241C311.931 36.6733 312.037 36.8208 312.176 36.9667C312.315 37.1159 312.503 37.2385 312.738 37.3347C312.976 37.4342 313.276 37.484 313.638 37.4841C314.148 37.4843 314.571 37.3601 314.906 37.1116C315.24 36.8664 315.408 36.4621 315.408 35.8987L315.408 34.4519L315.319 34.4519C315.226 34.6375 315.09 34.828 314.911 35.0235C314.735 35.219 314.502 35.383 314.21 35.5155C313.922 35.648 313.559 35.7142 313.121 35.7141C312.534 35.7139 312.003 35.5762 311.525 35.301C311.051 35.0225 310.674 34.6081 310.392 34.0578C310.114 33.5042 309.975 32.8115 309.975 31.9796C309.975 31.141 310.115 30.4334 310.393 29.8568C310.675 29.2769 311.055 28.8378 311.532 28.5396C312.01 28.2382 312.542 28.0875 313.128 28.0877C313.576 28.0878 313.944 28.1641 314.232 28.3167C314.523 28.4659 314.755 28.6466 314.928 28.8588C315.1 29.0676 315.231 29.2649 315.32 29.4505L315.42 29.4505L315.42 28.1877L317.195 28.1882L317.193 35.9489C317.193 36.6018 317.037 37.142 316.725 37.5695C316.413 37.997 315.987 38.3167 315.447 38.5287C314.907 38.7406 314.294 38.8465 313.607 38.8463ZM313.624 34.3023C314.005 34.3024 314.33 34.2097 314.598 34.0242C314.867 33.8386 315.071 33.5719 315.21 33.2239C315.349 32.8759 315.419 32.4583 315.419 31.9711C315.419 31.4905 315.35 31.0696 315.211 30.7083C315.075 30.347 314.873 30.0668 314.604 29.8679C314.339 29.6657 314.013 29.5645 313.625 29.5644C313.224 29.5643 312.889 29.6686 312.621 29.8773C312.352 30.086 312.15 30.3727 312.014 30.7372C311.878 31.0985 311.81 31.5094 311.81 31.9701C311.81 32.4375 311.877 32.8468 312.013 33.1982C312.152 33.5462 312.356 33.818 312.624 34.0137C312.896 34.206 313.229 34.3022 313.624 34.3023Z" fill="#5C616F"/>
</g>
<defs>
<filter id="filter0_d_256_1112" x="-59.937" y="-39.2629" width="579.033" height="279.116" filterUnits="userSpaceOnUse" color-interpolation-filters="sRGB">
<feFlood flood-opacity="0" result="BackgroundImageFix"/>
<feColorMatrix in="SourceAlpha" type="matrix" values="0 0 0 0 0 0 0 0 0 0 0 0 0 0 0 0 0 0 127 0" result="hardAlpha"/>
<feOffset dx="20" dy="40"/>
<feGaussianBlur stdDeviation="40"/>
<feComposite in2="hardAlpha" operator="out"/>
<feColorMatrix type="matrix" values="0 0 0 0 0.178125 0 0 0 0 0.200292 0 0 0 0 0.316667 0 0 0 0.12 0"/>
<feBlend mode="multiply" in2="BackgroundImageFix" result="effect1_dropShadow_256_1112"/>
<feBlend mode="normal" in="SourceGraphic" in2="effect1_dropShadow_256_1112" result="shape"/>
</filter>
<clipPath id="clip0_256_1112">
<rect width="12" height="12" fill="white" transform="translate(28.5732 82.7446) rotate(0.0158183)"/>
</clipPath>
<clipPath id="clip1_256_1112">
<rect width="12" height="12" fill="white" transform="matrix(0.999971 0.0076744 0.0076744 -0.999971 249.57 94.761)"/>
</clipPath>
</defs>
</svg>
