<svg width="112" height="52" viewBox="0 0 112 52" fill="none" xmlns="http://www.w3.org/2000/svg">
<path d="M54.5166 28.3517L58.1778 30.2197C57.4123 31.2034 56.4526 31.9936 55.2988 32.5901C54.1449 33.1866 52.8857 33.4848 51.5211 33.4848C49.99 33.4848 48.5921 33.1133 47.3274 32.3703C46.0737 31.6273 45.0696 30.6331 44.3152 29.3877C43.5719 28.1319 43.2002 26.7453 43.2002 25.2278C43.2002 24.0766 43.4165 23.004 43.8492 22.0098C44.2819 21.0051 44.8755 20.126 45.6299 19.3725C46.3954 18.6086 47.283 18.0121 48.2926 17.583C49.3022 17.1539 50.3784 16.9394 51.5211 16.9394C52.8857 16.9394 54.1449 17.2376 55.2988 17.8342C56.4526 18.4307 57.4123 19.2313 58.1778 20.2359L54.5166 22.0883C54.1283 21.6697 53.6679 21.3452 53.1353 21.115C52.6139 20.8848 52.0758 20.7696 51.5211 20.7696C50.7223 20.7696 50.0011 20.979 49.3577 21.3976C48.7142 21.8057 48.2038 22.3499 47.8266 23.0301C47.4494 23.6999 47.2608 24.4325 47.2608 25.2278C47.2608 26.0127 47.4494 26.7453 47.8266 27.4255C48.2038 28.0953 48.7142 28.6342 49.3577 29.0424C50.0011 29.4505 50.7223 29.6546 51.5211 29.6546C52.098 29.6546 52.6472 29.5395 53.1686 29.3092C53.6901 29.0685 54.1394 28.7494 54.5166 28.3517Z" fill="#101010"/>
<path d="M67.9679 33.4848C66.4368 33.4848 65.0389 33.1133 63.7741 32.3703C62.5204 31.6273 61.5164 30.6331 60.762 29.3877C60.0186 28.1319 59.647 26.7453 59.647 25.2278C59.647 24.0766 59.8633 23.004 60.296 22.0098C60.7287 21.0051 61.3222 20.126 62.0767 19.3725C62.8422 18.6086 63.7297 18.0121 64.7393 17.583C65.7489 17.1539 66.8251 16.9394 67.9679 16.9394C69.4989 16.9394 70.8913 17.3109 72.1449 18.0539C73.4097 18.797 74.4138 19.7964 75.1571 21.0522C75.9115 22.308 76.2887 23.6999 76.2887 25.2278C76.2887 26.3685 76.0724 27.436 75.6397 28.4302C75.207 29.4244 74.6079 30.3034 73.8424 31.0674C73.088 31.8209 72.206 32.4122 71.1964 32.8412C70.1979 33.2703 69.1217 33.4848 67.9679 33.4848ZM67.9679 29.6546C68.7778 29.6546 69.5044 29.4505 70.1479 29.0424C70.7914 28.6342 71.2962 28.0953 71.6623 27.4255C72.0395 26.7557 72.2282 26.0232 72.2282 25.2278C72.2282 24.4115 72.034 23.6685 71.6457 22.9987C71.2685 22.3185 70.7526 21.7795 70.098 21.3819C69.4545 20.9737 68.7445 20.7696 67.9679 20.7696C67.169 20.7696 66.4479 20.9737 65.8044 21.3819C65.1609 21.79 64.6506 22.3342 64.2734 23.0144C63.8962 23.6947 63.7076 24.4325 63.7076 25.2278C63.7076 26.0546 63.9017 26.8028 64.29 27.4726C64.6783 28.1424 65.1942 28.6761 65.8377 29.0738C66.4923 29.461 67.2023 29.6546 67.9679 29.6546Z" fill="#101010"/>
<path d="M89.2628 28.3517L92.924 30.2197C92.1585 31.2034 91.1988 31.9936 90.045 32.5901C88.8912 33.1866 87.6319 33.4848 86.2673 33.4848C84.7363 33.4848 83.3384 33.1133 82.0736 32.3703C80.8199 31.6273 79.8159 30.6331 79.0614 29.3877C78.3181 28.1319 77.9464 26.7453 77.9464 25.2278C77.9464 24.0766 78.1628 23.004 78.5955 22.0098C79.0281 21.0051 79.6217 20.126 80.3761 19.3725C81.1416 18.6086 82.0292 18.0121 83.0388 17.583C84.0484 17.1539 85.1246 16.9394 86.2673 16.9394C87.6319 16.9394 88.8912 17.2376 90.045 17.8342C91.1988 18.4307 92.1585 19.2313 92.924 20.2359L89.2628 22.0883C88.8745 21.6697 88.4141 21.3452 87.8816 21.115C87.3601 20.8848 86.822 20.7696 86.2673 20.7696C85.4685 20.7696 84.7474 20.979 84.1039 21.3976C83.4604 21.8057 82.9501 22.3499 82.5728 23.0301C82.1956 23.6999 82.007 24.4325 82.007 25.2278C82.007 26.0127 82.1956 26.7453 82.5728 27.4255C82.9501 28.0953 83.4604 28.6342 84.1039 29.0424C84.7474 29.4505 85.4685 29.6546 86.2673 29.6546C86.8442 29.6546 87.3934 29.5395 87.9149 29.3092C88.4363 29.0685 88.8856 28.7494 89.2628 28.3517Z" fill="#101010"/>
<path d="M107.94 17.3789H112V33.0767H107.94L107.757 31.1302C107.302 31.8313 106.697 32.4017 105.943 32.8412C105.199 33.2703 104.317 33.4848 103.297 33.4848C102.065 33.4848 100.911 33.2651 99.8351 32.8255C98.7589 32.386 97.8103 31.779 96.9893 31.0046C96.1794 30.2302 95.5415 29.3354 95.0755 28.3203C94.6206 27.3052 94.3932 26.2168 94.3932 25.0551C94.3932 23.9354 94.6095 22.8836 95.0422 21.8999C95.486 20.9162 96.1017 20.0528 96.8895 19.3098C97.6772 18.5667 98.5869 17.9859 99.6187 17.5673C100.651 17.1487 101.76 16.9394 102.947 16.9394C104.045 16.9394 105.027 17.1696 105.893 17.6301C106.769 18.0906 107.512 18.6766 108.123 19.3882L107.94 17.3789ZM103.197 29.7959C104.062 29.7959 104.828 29.5918 105.493 29.1837C106.159 28.7755 106.68 28.2261 107.058 27.5354C107.435 26.8342 107.623 26.065 107.623 25.2278C107.623 24.3801 107.435 23.6109 107.058 22.9202C106.68 22.2191 106.153 21.6644 105.477 21.2563C104.811 20.8481 104.051 20.6441 103.197 20.6441C102.342 20.6441 101.56 20.8534 100.85 21.272C100.151 21.6801 99.591 22.2295 99.1694 22.9202C98.7589 23.6109 98.5536 24.3801 98.5536 25.2278C98.5536 26.0755 98.7644 26.8447 99.186 27.5354C99.6076 28.2261 100.168 28.7755 100.867 29.1837C101.577 29.5918 102.354 29.7959 103.197 29.7959Z" fill="#101010"/>
<ellipse cx="16.8" cy="24.0303" rx="16.8" ry="16.5455" fill="#101010"/>
<path d="M21.9586 27.9234L25.6 29.7353C24.7125 30.8716 23.5835 31.7805 22.2131 32.4623C20.8558 33.144 19.3809 33.4849 17.7887 33.4849C15.9875 33.4849 14.343 33.0603 12.8552 32.2111C11.3803 31.3619 10.1992 30.2257 9.31168 28.8024C8.43723 27.3672 8 25.7825 8 24.0483C8 22.7326 8.25451 21.5067 8.76352 20.3705C9.27253 19.2223 9.97078 18.2177 10.8583 17.3565C11.7588 16.4834 12.803 15.8017 13.9907 15.3113C15.1783 14.821 16.4443 14.5758 17.7887 14.5758C19.3809 14.5758 20.8558 14.9166 22.2131 15.5984C23.5835 16.2801 24.7125 17.1951 25.6 18.3432L21.9586 20.1552C21.4105 19.5572 20.7709 19.1027 20.04 18.7917C19.3092 18.4688 18.5587 18.3074 17.7887 18.3074C16.7184 18.3074 15.7461 18.5765 14.8716 19.1147C14.0102 19.6409 13.325 20.3406 12.816 21.2137C12.3201 22.0748 12.0721 23.0197 12.0721 24.0483C12.0721 25.0649 12.3266 26.0097 12.8356 26.8828C13.3446 27.744 14.0298 28.4377 14.8912 28.9639C15.7657 29.4902 16.7315 29.7533 17.7887 29.7533C18.5978 29.7533 19.3679 29.5858 20.0988 29.251C20.8297 28.9161 21.4496 28.4735 21.9586 27.9234Z" fill="white"/>
</svg>
