<svg width="24" height="24" viewBox="0 0 24 24" fill="none" xmlns="http://www.w3.org/2000/svg">
<path fill-rule="evenodd" clip-rule="evenodd" d="M12.0004 21.6C17.3023 21.6 21.6004 17.3019 21.6004 12C21.6004 6.69806 17.3023 2.39999 12.0004 2.39999C6.69846 2.39999 2.40039 6.69806 2.40039 12C2.40039 17.3019 6.69846 21.6 12.0004 21.6ZM16.4489 10.4485C16.9175 9.97989 16.9175 9.2201 16.4489 8.75147C15.9803 8.28284 15.2205 8.28284 14.7519 8.75147L10.8004 12.7029L9.24892 11.1515C8.78029 10.6828 8.02049 10.6828 7.55186 11.1515C7.08323 11.6201 7.08323 12.3799 7.55186 12.8485L9.95186 15.2485C10.4205 15.7172 11.1803 15.7172 11.6489 15.2485L16.4489 10.4485Z" fill="#7E8492"/>
</svg>
