<svg width="420" height="347" viewBox="0 0 420 347" fill="none" xmlns="http://www.w3.org/2000/svg">
<g filter="url(#filter0_d_256_1038)">
<rect x="0.0957031" y="0.871216" width="419" height="346" rx="8" transform="rotate(0.0158183 0.0957031 0.871216)" fill="white"/>
<path d="M29.2419 32.5171C29.1853 31.9441 28.9416 31.499 28.5108 31.1816C28.08 30.8643 27.4953 30.7055 26.7567 30.7053C26.2548 30.7051 25.831 30.7761 25.4853 30.918C25.1396 31.0552 24.8744 31.2469 24.6897 31.4931C24.5097 31.7392 24.4196 32.0186 24.4196 32.3311C24.41 32.5915 24.4644 32.8188 24.5827 33.0129C24.7058 33.2071 24.8738 33.3752 25.0868 33.5173C25.2999 33.6547 25.5461 33.7755 25.8254 33.8797C26.1047 33.9793 26.403 34.0646 26.7202 34.1357L28.0269 34.4485C28.6614 34.5908 29.2437 34.7803 29.7739 35.0172C30.3042 35.2541 30.7634 35.5454 31.1515 35.8912C31.5397 36.2369 31.8402 36.6442 32.0532 37.113C32.2709 37.5818 32.382 38.1192 32.3865 38.7253C32.3816 39.6155 32.1541 40.3872 31.7041 41.0405C31.2588 41.689 30.6148 42.1931 29.7718 42.5527C28.9337 42.9076 27.9227 43.0849 26.739 43.0845C25.5648 43.0842 24.5421 42.904 23.671 42.5439C22.8046 42.1838 22.1277 41.651 21.6402 40.9453C21.1574 40.235 20.9044 39.3566 20.881 38.3102L23.8568 38.311C23.8898 38.7987 24.0294 39.206 24.2755 39.5327C24.5264 39.8548 24.8601 40.0987 25.2767 40.2645C25.6981 40.4256 26.1739 40.5063 26.7042 40.5064C27.2251 40.5066 27.6773 40.4309 28.0608 40.2795C28.4491 40.1281 28.7498 39.9175 28.963 39.6477C29.1761 39.3778 29.2828 39.0677 29.2829 38.7173C29.2829 38.3906 29.186 38.116 28.9919 37.8934C28.8026 37.6708 28.5232 37.4813 28.154 37.325C27.7894 37.1686 27.342 37.0265 26.8118 36.8985L25.2281 36.5003C24.0018 36.2017 23.0337 35.735 22.3236 35.1004C21.6136 34.4657 21.2611 33.611 21.2661 32.5362C21.2616 31.6555 21.4962 30.8861 21.9699 30.2281C22.4483 29.5701 23.1042 29.0565 23.9376 28.6875C24.771 28.3184 25.7181 28.134 26.7787 28.1343C27.8582 28.1346 28.8004 28.3195 29.6052 28.689C30.4148 29.0586 31.0444 29.5725 31.494 30.2307C31.9436 30.889 32.1754 31.6514 32.1894 32.5179L29.2419 32.5171ZM37.0079 43.0874C36.3118 43.0872 35.6916 42.9663 35.1472 42.7246C34.6027 42.4783 34.1719 42.1159 33.8548 41.6376C33.5425 41.1546 33.3864 40.5532 33.3866 39.8335C33.3868 39.2275 33.4982 38.7185 33.7208 38.3066C33.9435 37.8948 34.2466 37.5634 34.6302 37.3126C35.0138 37.0617 35.4494 36.8725 35.9372 36.7448C36.4296 36.617 36.9457 36.5272 37.4855 36.4753C38.12 36.4092 38.6314 36.3478 39.0197 36.2911C39.4079 36.2296 39.6897 36.1397 39.8649 36.0214C40.0401 35.9031 40.1278 35.7279 40.1278 35.4959L40.1279 35.4533C40.128 35.0035 39.986 34.6554 39.702 34.4091C39.4227 34.1629 39.025 34.0396 38.5089 34.0395C37.9644 34.0393 37.5311 34.16 37.2091 34.4014C36.8871 34.638 36.6739 34.9362 36.5697 35.2961L33.7714 35.068C33.9137 34.4052 34.1932 33.8323 34.61 33.3495C35.0268 32.8619 35.5643 32.488 36.2225 32.2278C36.8854 31.9628 37.6525 31.8305 38.5237 31.8307C39.1298 31.8309 39.7098 31.902 40.2637 32.0442C40.8224 32.1864 41.3171 32.4067 41.7479 32.7052C42.1835 33.0036 42.5266 33.3872 42.7774 33.856C43.0283 34.3201 43.1536 34.8765 43.1534 35.5252L43.1514 42.8831L40.2821 42.8823L40.2825 41.3695L40.1972 41.3695C40.022 41.7104 39.7875 42.011 39.4939 42.2713C39.2002 42.5269 38.8474 42.728 38.4355 42.8747C38.0235 43.0166 37.5476 43.0875 37.0079 43.0874ZM37.8749 40.9995C38.32 40.9997 38.713 40.9122 39.054 40.7371C39.3949 40.5573 39.6625 40.3159 39.8567 40.0129C40.0509 39.7099 40.1481 39.3667 40.1482 38.9831L40.1485 37.8255C40.0538 37.887 39.9236 37.9438 39.7578 37.9958C39.5968 38.0431 39.4145 38.088 39.2109 38.1306C39.0073 38.1684 38.8037 38.2039 38.6001 38.237C38.3965 38.2653 38.2118 38.2913 38.0461 38.3149C37.691 38.3669 37.3808 38.4497 37.1156 38.5633C36.8505 38.6768 36.6444 38.8306 36.4976 39.0247C36.3508 39.2141 36.2773 39.4508 36.2772 39.7349C36.2771 40.1468 36.4262 40.4617 36.7244 40.6796C37.0274 40.8928 37.4109 40.9994 37.8749 40.9995ZM48.0283 28.339L48.0242 42.8845L44.9987 42.8836L45.0027 28.3382L48.0283 28.339ZM54.9194 43.0994C53.7973 43.0991 52.8314 42.8716 52.0219 42.4168C51.2171 41.9573 50.597 41.3085 50.1616 40.4703C49.7263 39.6273 49.5087 38.6306 49.509 37.48C49.5094 36.3579 49.7274 35.3731 50.1633 34.5257C50.5991 33.6782 51.2125 33.0179 52.0033 32.5446C52.7989 32.0714 53.7317 31.8349 54.8018 31.8352C55.5215 31.8354 56.1914 31.9516 56.8116 32.1838C57.4366 32.4112 57.981 32.7546 58.4449 33.214C58.9135 33.6734 59.2779 34.2512 59.5382 34.9473C59.7984 35.6386 59.9284 36.4483 59.9281 37.3764L59.9279 38.2073L50.7162 38.2048L50.7167 36.3298L57.0804 36.3316C57.0805 35.8959 56.9859 35.51 56.7966 35.1738C56.6073 34.8376 56.3446 34.5747 56.0085 34.3852C55.6771 34.191 55.2912 34.0938 54.8509 34.0937C54.3916 34.0936 53.9844 34.2 53.6292 34.413C53.2788 34.6212 53.0041 34.9029 52.8051 35.2579C52.6062 35.6083 52.5042 35.9989 52.4994 36.4297L52.4989 38.2124C52.4987 38.7522 52.5981 39.2186 52.7968 39.6116C53.0003 40.0047 53.2867 40.3078 53.6559 40.5209C54.0252 40.7341 54.4631 40.8408 54.9698 40.8409C55.3059 40.841 55.6137 40.7937 55.8931 40.6991C56.1725 40.6045 56.4116 40.4625 56.6105 40.2732C56.8095 40.0838 56.961 39.8519 57.0653 39.5773L59.8635 39.7627C59.7213 40.435 59.4299 41.0221 58.9895 41.5238C58.5537 42.0209 57.9902 42.409 57.2988 42.6881C56.6122 42.9626 55.819 43.0997 54.9194 43.0994ZM70.4799 35.0924L67.7099 35.262C67.6627 35.0253 67.5609 34.8122 67.4047 34.6228C67.2485 34.4286 67.0426 34.2746 66.7869 34.1609C66.536 34.0425 66.2354 33.9832 65.885 33.9831C65.4163 33.983 65.0209 34.0823 64.6988 34.2811C64.3768 34.4751 64.2158 34.7355 64.2157 35.0622C64.2156 35.3226 64.3197 35.5428 64.528 35.7228C64.7363 35.9028 65.0937 36.0473 65.6003 36.1563L67.5746 36.5546C68.6352 36.7727 69.4258 37.1233 69.9465 37.6064C70.4672 38.0895 70.7275 38.7241 70.7272 39.51C70.727 40.225 70.5162 40.8523 70.0946 41.392C69.6778 41.9316 69.1048 42.3529 68.3755 42.6557C67.651 42.9538 66.8153 43.1027 65.8683 43.1024C64.4242 43.102 63.2737 42.8011 62.4168 42.1995C61.5647 41.5932 61.0654 40.7692 60.9189 39.7275L63.8948 39.5721C63.9847 40.0124 64.2024 40.3487 64.548 40.5808C64.8935 40.8081 65.3362 40.9219 65.876 40.9221C66.4063 40.9222 66.8325 40.8205 67.1545 40.617C67.4812 40.4088 67.647 40.1413 67.6519 39.8146C67.6472 39.54 67.5313 39.315 67.304 39.1398C67.0768 38.9598 66.7265 38.8224 66.253 38.7276L64.3639 38.3506C63.2986 38.1372 62.5057 37.7677 61.985 37.242C61.469 36.7163 61.2111 36.0462 61.2114 35.2318C61.2116 34.5311 61.4011 33.9274 61.7801 33.4209C62.1637 32.9144 62.7012 32.5239 63.3926 32.2495C64.0887 31.9751 64.9031 31.838 65.8359 31.8382C67.2137 31.8386 68.2979 32.1301 69.0885 32.7127C69.8838 33.2953 70.3476 34.0885 70.4799 35.0924ZM76.3172 42.8923L76.3212 28.3468L82.0599 28.3484C83.1583 28.3487 84.0958 28.5455 84.8722 28.9387C85.6533 29.3271 86.2474 29.8789 86.6544 30.594C87.0661 31.3043 87.2719 32.1401 87.2716 33.1013C87.2714 34.0672 87.0628 34.8981 86.6459 35.594C86.2291 36.2852 85.6252 36.8153 84.8344 37.1844C84.0483 37.5535 83.0966 37.7379 81.9791 37.7376L78.1368 37.7365L78.1375 35.2649L81.4827 35.2658C82.0698 35.266 82.5575 35.1857 82.9458 35.0248C83.3341 34.8639 83.623 34.6225 83.8125 34.3006C84.0067 33.9787 84.1039 33.5786 84.104 33.1004C84.1041 32.6174 84.0072 32.2102 83.8131 31.8787C83.6238 31.5472 83.3327 31.2962 82.9398 31.1256C82.5516 30.9503 82.0615 30.8626 81.4697 30.8624L79.3958 30.8619L79.3925 42.8931L76.3172 42.8923ZM84.1742 36.2751L87.7874 42.8954L84.3925 42.8945L80.8574 36.2742L84.1742 36.2751ZM93.6811 43.1101C92.559 43.1098 91.5931 42.8823 90.7836 42.4275C89.9788 41.968 89.3587 41.3192 88.9233 40.481C88.488 39.638 88.2704 38.6413 88.2708 37.4907C88.2711 36.3686 88.4891 35.3838 88.925 34.5364C89.3608 33.689 89.9742 33.0286 90.765 32.5553C91.5606 32.0821 92.4934 31.8456 93.5635 31.8459C94.2832 31.8461 94.9532 31.9623 95.5734 32.1945C96.1983 32.4219 96.7427 32.7653 97.2066 33.2247C97.6752 33.6841 98.0396 34.2619 98.2999 34.958C98.5601 35.6494 98.6901 36.459 98.6898 37.3871L98.6896 38.218L89.4779 38.2155L89.4785 36.3405L95.8421 36.3423C95.8422 35.9066 95.7476 35.5207 95.5583 35.1845C95.369 34.8483 95.1063 34.5854 94.7702 34.3959C94.4388 34.2017 94.0529 34.1045 93.6126 34.1044C93.1533 34.1043 92.7461 34.2107 92.3909 34.4237C92.0405 34.6319 91.7658 34.9136 91.5668 35.2686C91.3679 35.619 91.266 36.0096 91.2611 36.4404L91.2606 38.2231C91.2605 38.7629 91.3598 39.2293 91.5585 39.6223C91.762 40.0154 92.0484 40.3185 92.4176 40.5317C92.7869 40.7448 93.2249 40.8515 93.7315 40.8516C94.0677 40.8517 94.3754 40.8044 94.6548 40.7098C94.9342 40.6152 95.1733 40.4732 95.3723 40.2839C95.5712 40.0945 95.7228 39.8626 95.827 39.588L98.6252 39.7734C98.483 40.4457 98.1917 41.0328 97.7512 41.5345C97.3154 42.0316 96.7519 42.4197 96.0605 42.6989C95.3739 42.9733 94.5808 43.1104 93.6811 43.1101ZM100.162 46.9898L100.166 31.9898L103.149 31.9906L103.148 33.823L103.283 33.823C103.416 33.5295 103.608 33.2312 103.859 32.9283C104.114 32.6206 104.446 32.365 104.853 32.1615C105.265 31.9533 105.777 31.8493 106.387 31.8494C107.183 31.8496 107.917 32.0582 108.589 32.475C109.261 32.8872 109.798 33.5099 110.201 34.3434C110.603 35.1721 110.804 36.2114 110.803 37.4614C110.803 38.6783 110.606 39.7057 110.213 40.5437C109.825 41.3769 109.294 42.0088 108.622 42.4395C107.954 42.8655 107.206 43.0783 106.377 43.0781C105.79 43.078 105.291 42.9808 104.879 42.7865C104.472 42.5923 104.138 42.3483 103.877 42.0547C103.617 41.7563 103.418 41.4556 103.281 41.1525L103.189 41.1525L103.187 46.9906L100.162 46.9898ZM103.126 37.4451C103.126 38.0938 103.216 38.6596 103.395 39.1426C103.575 39.6256 103.835 40.0021 104.176 40.2721C104.517 40.5374 104.931 40.67 105.419 40.6702C105.911 40.6703 106.328 40.5355 106.669 40.2657C107.01 39.9912 107.268 39.6125 107.444 39.1295C107.624 38.6419 107.714 38.0809 107.714 37.4464C107.714 36.8167 107.627 36.2626 107.452 35.7844C107.277 35.3061 107.019 34.932 106.678 34.662C106.337 34.392 105.918 34.257 105.421 34.2568C104.928 34.2567 104.512 34.3868 104.171 34.6471C103.834 34.9074 103.576 35.2767 103.396 35.7549C103.216 36.233 103.126 36.7964 103.126 37.4451ZM117.248 43.1166C116.145 43.1163 115.191 42.8817 114.386 42.4127C113.586 41.939 112.968 41.2807 112.533 40.4378C112.097 39.5901 111.88 38.6076 111.88 37.4901C111.88 36.3633 112.099 35.3785 112.534 34.5358C112.97 33.6884 113.588 33.0304 114.389 32.5619C115.194 32.0886 116.148 31.8521 117.251 31.8524C118.354 31.8527 119.306 32.0897 120.106 32.5634C120.911 33.0324 121.531 33.6907 121.966 34.5384C122.402 35.3813 122.619 36.3662 122.619 37.4931C122.618 38.6105 122.4 39.593 121.965 40.4404C121.529 41.2831 120.908 41.941 120.103 42.4143C119.303 42.8828 118.351 43.1169 117.248 43.1166ZM117.263 40.7729C117.765 40.773 118.184 40.6311 118.52 40.3471C118.856 40.0584 119.11 39.6654 119.28 39.1683C119.456 38.6712 119.543 38.1054 119.543 37.471C119.544 36.8365 119.456 36.2707 119.281 35.7734C119.111 35.2762 118.858 34.8832 118.522 34.5943C118.185 34.3053 117.766 34.1608 117.265 34.1607C116.758 34.1605 116.332 34.3048 115.986 34.5936C115.645 34.8823 115.387 35.2752 115.212 35.7723C115.041 36.2694 114.956 36.8352 114.955 37.4697C114.955 38.1042 115.04 38.67 115.211 39.1672C115.386 39.6644 115.644 40.0575 115.984 40.3464C116.33 40.6306 116.756 40.7727 117.263 40.7729ZM124.085 42.9055L124.088 31.9964L127.021 31.9972L127.02 33.9006L127.134 33.9006C127.333 33.2236 127.667 32.7123 128.136 32.3668C128.605 32.0165 129.144 31.8415 129.755 31.8417C129.907 31.8417 130.07 31.8512 130.245 31.8702C130.421 31.8892 130.574 31.9153 130.707 31.9485L130.706 34.6331C130.564 34.5905 130.368 34.5525 130.117 34.5193C129.866 34.4861 129.636 34.4695 129.428 34.4694C128.983 34.4693 128.585 34.5663 128.235 34.7603C127.889 34.9496 127.614 35.2147 127.411 35.5555C127.212 35.8964 127.112 36.2893 127.112 36.7344L127.11 42.9063L124.085 42.9055ZM138.121 32.0002L138.12 34.273L131.55 34.2711L131.551 31.9984L138.121 32.0002ZM133.043 29.3852L136.069 29.386L136.066 39.5565C136.066 39.8358 136.108 40.0537 136.194 40.2099C136.279 40.3615 136.397 40.468 136.549 40.5296C136.705 40.5912 136.885 40.6221 137.088 40.6221C137.23 40.6221 137.373 40.6104 137.515 40.5867C137.657 40.5583 137.766 40.5371 137.841 40.5229L138.317 42.7744C138.165 42.8217 137.952 42.8761 137.677 42.9376C137.403 43.0038 137.069 43.044 136.676 43.0581C135.947 43.0863 135.307 42.989 134.758 42.7664C134.214 42.5437 133.79 42.1979 133.487 41.7291C133.184 41.2602 133.035 40.6683 133.04 39.9534L133.043 29.3852Z" fill="#1D1E25"/>
<g clip-path="url(#clip0_256_1038)">
<mask id="mask0_256_1038" style="mask-type:luminance" maskUnits="userSpaceOnUse" x="25" y="74" width="369" height="261">
<rect x="25.9653" y="74.8784" width="367.22" height="260" transform="rotate(0.0158183 25.9653 74.8784)" fill="white"/>
</mask>
<g mask="url(#mask0_256_1038)">
<g clip-path="url(#clip1_256_1038)">
<path d="M362.767 316.608C362.767 317.528 362.6 318.324 362.268 318.994C361.935 319.664 361.479 320.181 360.899 320.545C360.32 320.908 359.658 321.09 358.914 321.09C358.169 321.089 357.507 320.907 356.928 320.544C356.348 320.18 355.893 319.663 355.56 318.992C355.228 318.322 355.062 317.526 355.063 316.606C355.063 315.685 355.229 314.89 355.562 314.219C355.894 313.549 356.35 313.032 356.93 312.669C357.51 312.305 358.172 312.123 358.916 312.124C359.66 312.124 360.322 312.306 360.902 312.67C361.481 313.033 361.937 313.551 362.269 314.221C362.601 314.892 362.767 315.687 362.767 316.608ZM361.744 316.607C361.745 315.852 361.618 315.214 361.366 314.694C361.116 314.174 360.776 313.78 360.347 313.513C359.921 313.246 359.444 313.112 358.916 313.112C358.387 313.112 357.909 313.246 357.48 313.513C357.053 313.779 356.714 314.173 356.461 314.693C356.211 315.212 356.085 315.85 356.085 316.606C356.085 317.362 356.21 317.999 356.46 318.519C356.712 319.039 357.052 319.433 357.478 319.7C357.907 319.967 358.385 320.101 358.914 320.101C359.442 320.101 359.92 319.968 360.346 319.701C360.775 319.434 361.114 319.04 361.365 318.521C361.618 318.001 361.744 317.363 361.744 316.607ZM367.066 321.109C366.452 321.109 365.924 320.964 365.48 320.674C365.037 320.384 364.697 319.985 364.458 319.476C364.22 318.967 364.1 318.386 364.101 317.733C364.101 317.068 364.223 316.482 364.468 315.973C364.715 315.462 365.059 315.063 365.499 314.776C365.942 314.486 366.459 314.342 367.05 314.342C367.511 314.342 367.925 314.427 368.295 314.598C368.664 314.768 368.966 315.007 369.202 315.314C369.438 315.621 369.584 315.979 369.641 316.388L368.635 316.388C368.558 316.089 368.388 315.825 368.124 315.595C367.863 315.362 367.51 315.245 367.067 315.245C366.675 315.245 366.331 315.347 366.036 315.552C365.743 315.753 365.514 316.039 365.349 316.408C365.187 316.775 365.106 317.205 365.106 317.699C365.106 318.205 365.186 318.645 365.345 319.02C365.506 319.395 365.734 319.687 366.026 319.894C366.321 320.102 366.668 320.205 367.066 320.205C367.327 320.206 367.564 320.16 367.777 320.069C367.991 319.978 368.171 319.848 368.319 319.677C368.467 319.507 368.572 319.302 368.634 319.064L369.64 319.064C369.583 319.451 369.442 319.798 369.218 320.108C368.996 320.415 368.702 320.659 368.335 320.841C367.972 321.02 367.548 321.109 367.066 321.109ZM373.958 314.429L373.958 315.281L370.566 315.28L370.566 314.428L373.958 314.429ZM371.555 312.86L372.561 312.86L372.559 319.099C372.559 319.383 372.6 319.596 372.682 319.738C372.768 319.878 372.876 319.971 373.006 320.02C373.14 320.065 373.28 320.088 373.428 320.088C373.539 320.088 373.63 320.082 373.701 320.071C373.772 320.057 373.829 320.045 373.871 320.037L374.076 320.94C374.007 320.966 373.912 320.991 373.79 321.017C373.668 321.045 373.513 321.06 373.325 321.059C373.041 321.059 372.763 320.998 372.49 320.876C372.22 320.754 371.996 320.568 371.817 320.318C371.641 320.068 371.553 319.752 371.553 319.372L371.555 312.86Z" fill="#808D9E"/>
<path fill-rule="evenodd" clip-rule="evenodd" d="M363.842 303.972L363.893 120.972L365.113 120.972L365.062 303.972L363.842 303.972Z" fill="#E9ECF2"/>
</g>
<g clip-path="url(#clip2_256_1038)">
<path d="M306.844 314.41C306.793 313.979 306.586 313.643 306.222 313.405C305.859 313.166 305.413 313.046 304.884 313.046C304.498 313.046 304.16 313.109 303.87 313.234C303.583 313.358 303.358 313.53 303.196 313.749C303.037 313.968 302.958 314.216 302.958 314.495C302.958 314.728 303.013 314.928 303.124 315.096C303.237 315.26 303.382 315.398 303.558 315.509C303.734 315.617 303.919 315.707 304.112 315.778C304.305 315.846 304.483 315.901 304.645 315.944L305.531 316.183C305.758 316.243 306.011 316.325 306.289 316.43C306.571 316.535 306.839 316.679 307.095 316.861C307.353 317.04 307.566 317.27 307.734 317.551C307.901 317.833 307.985 318.178 307.985 318.587C307.985 319.059 307.861 319.485 307.614 319.865C307.369 320.246 307.011 320.548 306.54 320.773C306.071 320.997 305.501 321.109 304.831 321.109C304.206 321.109 303.665 321.008 303.207 320.806C302.753 320.604 302.395 320.323 302.134 319.962C301.875 319.601 301.729 319.182 301.695 318.704L302.786 318.705C302.814 319.034 302.925 319.307 303.118 319.523C303.314 319.736 303.561 319.895 303.86 320.001C304.161 320.103 304.484 320.154 304.831 320.154C305.234 320.154 305.597 320.089 305.918 319.958C306.239 319.825 306.493 319.64 306.681 319.405C306.868 319.166 306.962 318.888 306.962 318.57C306.962 318.28 306.881 318.044 306.719 317.862C306.558 317.68 306.345 317.532 306.08 317.419C305.816 317.305 305.531 317.206 305.224 317.12L304.15 316.813C303.468 316.617 302.929 316.337 302.531 315.973C302.133 315.609 301.935 315.134 301.935 314.545C301.935 314.057 302.067 313.631 302.332 313.267C302.599 312.901 302.957 312.617 303.406 312.415C303.857 312.211 304.362 312.109 304.919 312.109C305.481 312.109 305.981 312.21 306.418 312.412C306.856 312.611 307.202 312.884 307.458 313.23C307.716 313.577 307.853 313.97 307.867 314.411L306.844 314.41ZM312.33 321.094C311.699 321.094 311.155 320.954 310.698 320.676C310.243 320.394 309.893 320.002 309.646 319.499C309.401 318.994 309.279 318.405 309.28 317.735C309.28 317.065 309.402 316.474 309.646 315.962C309.894 315.448 310.238 315.048 310.678 314.761C311.121 314.471 311.638 314.327 312.229 314.327C312.57 314.327 312.907 314.384 313.239 314.497C313.572 314.611 313.874 314.796 314.147 315.052C314.419 315.305 314.637 315.64 314.798 316.058C314.96 316.475 315.041 316.989 315.041 317.6L315.041 318.026L309.995 318.025L309.996 317.156L314.018 317.157C314.018 316.787 313.945 316.458 313.797 316.168C313.652 315.878 313.445 315.649 313.175 315.482C312.908 315.314 312.593 315.23 312.229 315.23C311.829 315.23 311.482 315.329 311.189 315.528C310.899 315.724 310.676 315.98 310.52 316.295C310.364 316.61 310.285 316.948 310.285 317.309L310.285 317.889C310.285 318.383 310.37 318.802 310.541 319.146C310.714 319.487 310.954 319.747 311.26 319.926C311.567 320.102 311.924 320.19 312.33 320.19C312.594 320.19 312.833 320.154 313.046 320.08C313.262 320.003 313.448 319.89 313.604 319.739C313.761 319.586 313.881 319.395 313.967 319.168L314.938 319.441C314.836 319.771 314.664 320.06 314.422 320.31C314.181 320.557 313.882 320.75 313.527 320.89C313.172 321.026 312.773 321.094 312.33 321.094ZM316.569 323.413L316.572 314.413L317.543 314.413L317.543 315.453L317.662 315.453C317.736 315.34 317.838 315.195 317.969 315.019C318.103 314.84 318.293 314.681 318.54 314.542C318.79 314.4 319.128 314.329 319.555 314.329C320.106 314.329 320.592 314.467 321.012 314.742C321.432 315.018 321.76 315.409 321.996 315.915C322.232 316.42 322.349 317.017 322.349 317.705C322.349 318.398 322.231 318.999 321.995 319.507C321.759 320.013 321.432 320.405 321.015 320.683C320.597 320.958 320.115 321.096 319.57 321.096C319.149 321.096 318.813 321.026 318.56 320.887C318.307 320.745 318.113 320.584 317.976 320.405C317.84 320.223 317.735 320.073 317.661 319.953L317.576 319.953L317.575 323.413L316.569 323.413ZM317.559 317.686C317.559 318.18 317.632 318.617 317.776 318.994C317.921 319.369 318.133 319.664 318.411 319.877C318.689 320.087 319.03 320.192 319.434 320.192C319.854 320.192 320.205 320.082 320.486 319.86C320.77 319.636 320.984 319.335 321.126 318.957C321.271 318.576 321.343 318.153 321.343 317.687C321.344 317.227 321.273 316.812 321.131 316.443C320.992 316.071 320.78 315.777 320.496 315.561C320.215 315.342 319.861 315.232 319.435 315.232C319.026 315.232 318.682 315.336 318.404 315.543C318.125 315.747 317.915 316.034 317.773 316.404C317.631 316.77 317.56 317.198 317.559 317.686Z" fill="#808D9E"/>
<path fill-rule="evenodd" clip-rule="evenodd" d="M311.382 303.957L311.433 120.957L312.653 120.958L312.602 303.957L311.382 303.957Z" fill="#E9ECF2"/>
</g>
<g clip-path="url(#clip3_256_1038)">
<path d="M247.915 320.94L246.807 320.939L250.014 312.213L251.105 312.213L254.307 320.941L253.199 320.941L250.593 313.594L250.525 313.594L247.915 320.94ZM248.325 317.531L252.791 317.532L252.791 318.469L248.325 318.468L248.325 317.531ZM259.656 318.267L259.657 314.397L260.662 314.398L260.661 320.943L259.655 320.943L259.655 319.835L259.587 319.835C259.434 320.167 259.195 320.45 258.871 320.683C258.547 320.913 258.138 321.028 257.644 321.028C257.234 321.027 256.871 320.938 256.553 320.759C256.235 320.577 255.985 320.304 255.803 319.94C255.621 319.574 255.53 319.112 255.531 318.555L255.532 314.396L256.537 314.397L256.536 318.487C256.536 318.965 256.67 319.345 256.937 319.63C257.206 319.914 257.55 320.056 257.968 320.056C258.218 320.056 258.472 319.992 258.731 319.864C258.992 319.737 259.211 319.541 259.387 319.277C259.566 319.012 259.656 318.676 259.656 318.267ZM265.144 323.535C264.658 323.535 264.241 323.473 263.891 323.347C263.542 323.225 263.251 323.063 263.018 322.861C262.788 322.662 262.604 322.449 262.468 322.222L263.269 321.66C263.36 321.779 263.475 321.916 263.614 322.069C263.754 322.225 263.944 322.36 264.185 322.474C264.43 322.591 264.749 322.649 265.144 322.649C265.673 322.649 266.109 322.521 266.453 322.266C266.796 322.01 266.968 321.61 266.968 321.064L266.969 319.735L266.884 319.735C266.81 319.854 266.705 320.002 266.568 320.178C266.435 320.351 266.241 320.506 265.988 320.642C265.738 320.776 265.4 320.842 264.974 320.842C264.446 320.842 263.971 320.717 263.551 320.467C263.133 320.217 262.803 319.853 262.558 319.375C262.317 318.898 262.196 318.319 262.197 317.637C262.197 316.966 262.315 316.383 262.551 315.885C262.787 315.386 263.115 314.999 263.536 314.727C263.956 314.451 264.442 314.314 264.993 314.314C265.419 314.314 265.757 314.385 266.007 314.527C266.26 314.666 266.453 314.825 266.587 315.004C266.723 315.181 266.828 315.326 266.902 315.439L267.004 315.439L267.004 314.399L267.976 314.4L267.974 321.133C267.974 321.695 267.846 322.153 267.59 322.505C267.337 322.86 266.996 323.12 266.567 323.284C266.141 323.452 265.667 323.535 265.144 323.535ZM265.111 319.939C265.514 319.939 265.855 319.847 266.134 319.662C266.412 319.477 266.624 319.212 266.769 318.865C266.914 318.519 266.986 318.104 266.986 317.621C266.987 317.149 266.916 316.733 266.774 316.372C266.632 316.012 266.422 315.729 266.143 315.524C265.865 315.32 265.521 315.217 265.112 315.217C264.686 315.217 264.331 315.325 264.047 315.541C263.765 315.757 263.554 316.046 263.412 316.41C263.272 316.773 263.202 317.177 263.202 317.62C263.202 318.075 263.273 318.477 263.415 318.826C263.56 319.173 263.773 319.445 264.054 319.644C264.338 319.84 264.69 319.939 265.111 319.939Z" fill="#808D9E"/>
<path fill-rule="evenodd" clip-rule="evenodd" d="M256.482 303.942L256.533 120.942L257.753 120.942L257.702 303.942L256.482 303.942Z" fill="#E9ECF2"/>
</g>
<g clip-path="url(#clip4_256_1038)">
<path d="M201.47 312.2L202.526 312.2L202.525 318.438C202.525 318.995 202.422 319.468 202.218 319.857C202.013 320.247 201.724 320.542 201.352 320.744C200.98 320.945 200.541 321.046 200.035 321.046C199.558 321.046 199.133 320.959 198.761 320.785C198.389 320.609 198.097 320.359 197.884 320.035C197.671 319.711 197.564 319.326 197.564 318.88L198.604 318.881C198.604 319.128 198.665 319.344 198.787 319.528C198.912 319.71 199.083 319.852 199.298 319.955C199.514 320.057 199.76 320.108 200.036 320.108C200.34 320.108 200.598 320.044 200.811 319.917C201.024 319.789 201.186 319.601 201.297 319.354C201.411 319.104 201.468 318.799 201.468 318.438L201.47 312.2ZM208.631 318.253L208.632 314.383L209.638 314.384L209.636 320.929L208.631 320.929L208.631 319.821L208.563 319.821C208.409 320.153 208.171 320.436 207.847 320.669C207.523 320.899 207.114 321.014 206.619 321.013C206.21 321.013 205.847 320.924 205.528 320.745C205.21 320.563 204.96 320.29 204.779 319.926C204.597 319.56 204.506 319.098 204.506 318.541L204.507 314.382L205.513 314.382L205.512 318.473C205.512 318.951 205.645 319.331 205.912 319.616C206.182 319.9 206.526 320.042 206.943 320.042C207.193 320.042 207.448 319.978 207.706 319.85C207.968 319.723 208.186 319.527 208.363 319.263C208.542 318.998 208.631 318.662 208.631 318.253ZM212.486 312.203L212.484 320.93L211.478 320.93L211.481 312.202L212.486 312.203Z" fill="#808D9E"/>
<path fill-rule="evenodd" clip-rule="evenodd" d="M204.022 303.928L204.073 120.928L206.513 120.928L206.462 303.928L204.022 303.928Z" fill="#E9ECF2"/>
<path opacity="0.1" fill-rule="evenodd" clip-rule="evenodd" d="M182.062 303.921L182.113 120.921L230.913 120.935L230.862 303.935L182.062 303.921Z" fill="url(#paint0_linear_256_1038)"/>
</g>
<g clip-path="url(#clip5_256_1038)">
<path d="M148.754 312.185L149.81 312.185L149.809 318.424C149.809 318.981 149.706 319.454 149.502 319.843C149.297 320.232 149.008 320.527 148.636 320.729C148.264 320.931 147.825 321.031 147.319 321.031C146.842 321.031 146.417 320.944 146.045 320.771C145.673 320.595 145.381 320.345 145.168 320.021C144.955 319.697 144.848 319.312 144.848 318.866L145.888 318.866C145.888 319.113 145.949 319.329 146.071 319.514C146.196 319.696 146.367 319.838 146.582 319.94C146.798 320.042 147.044 320.094 147.32 320.094C147.624 320.094 147.882 320.03 148.095 319.902C148.308 319.774 148.47 319.587 148.581 319.34C148.695 319.09 148.752 318.784 148.752 318.424L148.754 312.185ZM155.915 318.238L155.916 314.369L156.922 314.369L156.92 320.915L155.915 320.914L155.915 319.806L155.847 319.806C155.693 320.139 155.454 320.421 155.131 320.654C154.807 320.884 154.397 320.999 153.903 320.999C153.494 320.999 153.13 320.909 152.812 320.73C152.494 320.548 152.244 320.275 152.063 319.912C151.881 319.545 151.79 319.084 151.79 318.527L151.791 314.368L152.797 314.368L152.796 318.459C152.796 318.936 152.929 319.317 153.196 319.601C153.466 319.885 153.81 320.027 154.227 320.027C154.477 320.027 154.732 319.964 154.99 319.836C155.252 319.708 155.47 319.512 155.647 319.248C155.826 318.984 155.915 318.647 155.915 318.238ZM159.769 316.978L159.768 320.915L158.762 320.915L158.764 314.37L159.736 314.37L159.735 315.393L159.821 315.393C159.974 315.06 160.207 314.793 160.52 314.592C160.832 314.387 161.236 314.285 161.73 314.285C162.173 314.285 162.561 314.376 162.893 314.558C163.226 314.737 163.484 315.01 163.669 315.377C163.853 315.74 163.945 316.201 163.945 316.757L163.944 320.916L162.938 320.916L162.939 316.825C162.94 316.311 162.806 315.91 162.539 315.623C162.272 315.334 161.906 315.189 161.44 315.188C161.119 315.188 160.832 315.258 160.579 315.397C160.329 315.536 160.132 315.739 159.987 316.006C159.842 316.273 159.769 316.597 159.769 316.978Z" fill="#808D9E"/>
<path fill-rule="evenodd" clip-rule="evenodd" d="M156.442 303.914L156.493 120.914L157.713 120.915L157.662 303.915L156.442 303.914Z" fill="#E9ECF2"/>
</g>
<g clip-path="url(#clip6_256_1038)">
<path d="M88.2149 312.168L89.4762 312.169L92.4402 319.414L92.5424 319.414L95.5103 312.17L96.7717 312.171L96.7693 320.898L95.7807 320.898L95.7825 314.267L95.6973 314.267L92.9682 320.897L92.0136 320.897L89.2882 314.265L89.2029 314.265L89.2011 320.896L88.2125 320.896L88.2149 312.168ZM100.678 321.052C100.263 321.052 99.8868 320.974 99.5488 320.818C99.2108 320.659 98.9424 320.43 98.7436 320.131C98.5448 319.83 98.4455 319.467 98.4456 319.04C98.4457 318.665 98.5196 318.361 98.6674 318.129C98.8152 317.893 99.0127 317.708 99.2599 317.575C99.5071 317.441 99.7799 317.342 100.078 317.277C100.379 317.209 100.682 317.155 100.986 317.115C101.384 317.064 101.706 317.026 101.953 317C102.203 316.972 102.385 316.925 102.499 316.86C102.615 316.794 102.674 316.681 102.674 316.519L102.674 316.485C102.674 316.064 102.559 315.738 102.329 315.505C102.101 315.272 101.756 315.155 101.293 315.155C100.813 315.155 100.437 315.26 100.164 315.47C99.8911 315.68 99.6993 315.904 99.5884 316.143L98.634 315.802C98.8045 315.404 99.0319 315.095 99.316 314.873C99.603 314.649 99.9156 314.493 100.254 314.405C100.595 314.314 100.93 314.268 101.259 314.268C101.47 314.269 101.711 314.294 101.984 314.345C102.259 314.394 102.525 314.495 102.781 314.648C103.039 314.802 103.254 315.033 103.424 315.343C103.594 315.653 103.679 316.067 103.679 316.587L103.678 320.9L102.672 320.9L102.673 320.013L102.621 320.013C102.553 320.155 102.44 320.307 102.28 320.469C102.121 320.631 101.91 320.769 101.645 320.882C101.381 320.996 101.059 321.053 100.678 321.052ZM100.832 320.149C101.229 320.149 101.565 320.071 101.837 319.915C102.113 319.759 102.32 319.557 102.46 319.31C102.602 319.063 102.673 318.803 102.673 318.53L102.673 317.61C102.631 317.661 102.537 317.708 102.392 317.75C102.25 317.79 102.085 317.826 101.898 317.857C101.713 317.885 101.533 317.911 101.356 317.933C101.183 317.953 101.042 317.97 100.935 317.984C100.673 318.018 100.429 318.074 100.202 318.15C99.9771 318.224 99.7952 318.336 99.656 318.487C99.5196 318.634 99.4513 318.836 99.4512 319.092C99.4512 319.441 99.5803 319.706 99.8388 319.885C100.1 320.061 100.431 320.149 100.832 320.149ZM105.926 323.355C105.756 323.355 105.604 323.341 105.47 323.312C105.337 323.287 105.244 323.261 105.193 323.235L105.449 322.349C105.694 322.412 105.909 322.435 106.097 322.418C106.284 322.401 106.451 322.317 106.596 322.166C106.743 322.019 106.878 321.779 107.001 321.446L107.188 320.935L104.77 314.355L105.861 314.355L107.666 319.571L107.734 319.571L109.542 314.356L110.633 314.356L107.853 321.856C107.728 322.194 107.573 322.473 107.388 322.695C107.203 322.919 106.989 323.085 106.745 323.193C106.503 323.301 106.23 323.355 105.926 323.355Z" fill="#808D9E"/>
<path fill-rule="evenodd" clip-rule="evenodd" d="M100.336 303.899L100.386 120.899L101.579 120.899L101.528 303.899L100.336 303.899Z" fill="#E9ECF2"/>
</g>
<g clip-path="url(#clip7_256_1038)">
<path d="M38.9497 300.362L36.1234 308.137L34.9691 308.137L38.2234 299.606L38.9675 299.607L38.9497 300.362ZM41.3148 308.138L38.4869 300.362L38.4695 299.606L39.2136 299.607L42.4749 308.139L41.3148 308.138ZM41.1692 304.98L41.1689 305.906L36.3759 305.905L36.3762 304.979L41.1692 304.98ZM44.6246 303.018L44.6225 310.577L43.5326 310.577L43.5351 301.799L44.5312 301.8L44.6246 303.018ZM48.8955 304.918L48.8955 305.041C48.8954 305.502 48.8406 305.93 48.7311 306.324C48.6216 306.715 48.4613 307.055 48.2503 307.344C48.0432 307.633 47.7873 307.857 47.4826 308.017C47.1778 308.177 46.8282 308.257 46.4337 308.257C46.0313 308.257 45.6759 308.19 45.3673 308.058C45.0588 307.925 44.7971 307.731 44.5823 307.477C44.3675 307.223 44.1958 306.919 44.0669 306.563C43.942 306.208 43.8562 305.807 43.8095 305.362L43.8096 304.706C43.8567 304.237 43.9447 303.817 44.0737 303.446C44.2027 303.075 44.3727 302.758 44.5837 302.497C44.7986 302.231 45.0584 302.03 45.3632 301.893C45.6679 301.753 46.0195 301.683 46.4179 301.683C46.8163 301.683 47.1698 301.761 47.4784 301.918C47.7869 302.07 48.0466 302.289 48.2575 302.574C48.4684 302.859 48.6265 303.201 48.7318 303.599C48.8411 303.994 48.8957 304.434 48.8955 304.918ZM47.8056 305.041L47.8057 304.918C47.8058 304.601 47.7726 304.304 47.7063 304.027C47.64 303.746 47.5365 303.5 47.396 303.289C47.2593 303.074 47.0836 302.906 46.8688 302.785C46.654 302.659 46.3981 302.597 46.1012 302.597C45.8278 302.597 45.5895 302.644 45.3864 302.737C45.1871 302.831 45.0172 302.958 44.8765 303.118C44.7358 303.274 44.6205 303.454 44.5306 303.657C44.4446 303.856 44.3801 304.063 44.3371 304.278L44.3367 305.796C44.4147 306.069 44.524 306.327 44.6646 306.569C44.8052 306.807 44.9926 307.001 45.2269 307.149C45.4613 307.294 45.7562 307.366 46.1116 307.366C46.4046 307.366 46.6566 307.306 46.8676 307.185C47.0824 307.06 47.2583 306.89 47.395 306.675C47.5357 306.46 47.6393 306.214 47.7058 305.937C47.7723 305.656 47.8056 305.357 47.8056 305.041ZM51.4486 302.798L51.4471 308.141L50.3632 308.141L50.3649 301.801L51.4196 301.801L51.4486 302.798ZM53.4294 301.767L53.4232 302.775C53.3334 302.755 53.2475 302.743 53.1654 302.739C53.0873 302.732 52.9975 302.728 52.8959 302.728C52.6459 302.728 52.4252 302.767 52.2338 302.845C52.0423 302.923 51.8802 303.032 51.7473 303.173C51.6145 303.313 51.509 303.481 51.4308 303.676C51.3565 303.868 51.3076 304.079 51.2841 304.309L50.9794 304.485C50.9795 304.102 51.0167 303.743 51.091 303.407C51.1693 303.071 51.2885 302.774 51.4487 302.516C51.6089 302.255 51.8121 302.052 52.0582 301.907C52.3083 301.759 52.6052 301.685 52.9489 301.685C53.0271 301.685 53.1169 301.694 53.2185 301.714C53.32 301.73 53.3903 301.747 53.4294 301.767Z" fill="#92929D"/>
<path fill-rule="evenodd" clip-rule="evenodd" d="M45.4365 303.884L45.487 120.884L46.6793 120.884L46.6288 303.884L45.4365 303.884Z" fill="#F1F1F5"/>
</g>
<g filter="url(#filter1_d_256_1038)">
<path d="M214.06 128.93C214.062 122.303 219.436 116.932 226.063 116.934L274.063 116.947C280.691 116.949 286.062 122.323 286.06 128.95L286.056 142.95C286.054 149.578 280.68 154.949 274.053 154.947L214.053 154.93L214.06 128.93Z" fill="white"/>
</g>
<path d="M248.581 141.079C247.842 141.079 247.186 140.954 246.613 140.706C246.042 140.457 245.595 140.117 245.27 139.686C244.949 139.252 244.79 138.76 244.794 138.209C244.79 137.782 244.883 137.389 245.072 137.031C245.261 136.673 245.517 136.375 245.838 136.137C246.163 135.895 246.524 135.741 246.922 135.674L246.922 135.605C246.399 135.489 245.974 135.222 245.65 134.804C245.328 134.383 245.169 133.897 245.173 133.347C245.17 132.824 245.316 132.356 245.611 131.945C245.906 131.534 246.31 131.211 246.824 130.976C247.338 130.738 247.924 130.619 248.584 130.619C249.237 130.619 249.819 130.738 250.329 130.977C250.843 131.213 251.247 131.536 251.542 131.947C251.84 132.358 251.989 132.825 251.989 133.349C251.989 133.899 251.824 134.385 251.496 134.806C251.171 135.223 250.752 135.49 250.238 135.606L250.238 135.675C250.636 135.742 250.994 135.896 251.312 136.138C251.633 136.377 251.888 136.675 252.077 137.033C252.269 137.391 252.365 137.784 252.365 138.211C252.365 138.762 252.203 139.254 251.878 139.688C251.553 140.119 251.105 140.458 250.535 140.707C249.968 140.955 249.317 141.079 248.581 141.079ZM248.582 139.657C248.963 139.657 249.294 139.593 249.576 139.464C249.858 139.331 250.076 139.145 250.232 138.907C250.388 138.668 250.468 138.393 250.471 138.082C250.468 137.757 250.384 137.47 250.218 137.222C250.056 136.97 249.832 136.772 249.547 136.63C249.265 136.487 248.944 136.416 248.582 136.416C248.218 136.416 247.893 136.487 247.608 136.629C247.323 136.772 247.097 136.969 246.932 137.221C246.769 137.469 246.69 137.756 246.693 138.081C246.689 138.392 246.766 138.667 246.921 138.906C247.077 139.141 247.296 139.325 247.577 139.458C247.862 139.591 248.197 139.657 248.582 139.657ZM248.583 135.019C248.894 135.019 249.169 134.956 249.408 134.83C249.65 134.704 249.841 134.528 249.98 134.303C250.119 134.078 250.191 133.818 250.194 133.523C250.191 133.231 250.121 132.976 249.985 132.757C249.85 132.535 249.661 132.364 249.419 132.245C249.177 132.122 248.899 132.061 248.584 132.061C248.262 132.06 247.979 132.122 247.733 132.244C247.491 132.364 247.302 132.534 247.167 132.756C247.034 132.975 246.969 133.23 246.972 133.522C246.969 133.817 247.035 134.077 247.171 134.302C247.31 134.524 247.501 134.7 247.743 134.83C247.988 134.956 248.268 135.019 248.583 135.019ZM253.999 140.941L253.999 139.609L257.535 136.145C257.873 135.803 258.155 135.5 258.381 135.235C258.606 134.97 258.775 134.713 258.888 134.465C259.001 134.216 259.057 133.951 259.057 133.669C259.057 133.348 258.984 133.073 258.839 132.844C258.693 132.612 258.492 132.433 258.237 132.307C257.982 132.181 257.692 132.118 257.367 132.118C257.032 132.118 256.739 132.187 256.487 132.326C256.235 132.462 256.04 132.656 255.9 132.908C255.764 133.16 255.696 133.46 255.696 133.808L253.941 133.807C253.941 133.161 254.089 132.599 254.384 132.122C254.679 131.645 255.085 131.275 255.603 131.013C256.123 130.752 256.72 130.621 257.392 130.621C258.075 130.621 258.675 130.749 259.192 131.005C259.709 131.26 260.11 131.61 260.395 132.054C260.683 132.498 260.827 133.005 260.827 133.575C260.827 133.956 260.754 134.331 260.608 134.699C260.462 135.067 260.205 135.474 259.837 135.922C259.472 136.369 258.96 136.911 258.3 137.547L256.545 139.331L256.545 139.401L260.98 139.402L260.979 140.943L253.999 140.941ZM266.458 141.139C265.639 141.138 264.936 140.931 264.35 140.517C263.767 140.099 263.318 139.497 263.003 138.712C262.692 137.923 262.536 136.973 262.537 135.863C262.54 134.752 262.698 133.808 263.01 133.029C263.325 132.247 263.774 131.65 264.357 131.24C264.944 130.829 265.645 130.624 266.461 130.624C267.276 130.624 267.977 130.83 268.563 131.241C269.15 131.652 269.599 132.249 269.91 133.031C270.225 133.813 270.382 134.758 270.382 135.865C270.381 136.979 270.224 137.93 269.909 138.718C269.597 139.504 269.148 140.104 268.561 140.518C267.977 140.932 267.276 141.139 266.458 141.139ZM266.458 139.583C267.095 139.583 267.597 139.27 267.965 138.643C268.336 138.014 268.522 137.087 268.522 135.864C268.523 135.056 268.438 134.376 268.269 133.826C268.101 133.276 267.862 132.861 267.554 132.583C267.246 132.301 266.881 132.16 266.46 132.16C265.827 132.16 265.327 132.475 264.959 133.104C264.59 133.73 264.405 134.65 264.401 135.863C264.397 136.675 264.478 137.358 264.644 137.912C264.813 138.465 265.051 138.883 265.36 139.165C265.668 139.443 266.034 139.582 266.458 139.583Z" fill="#1D1E25"/>
<rect x="225.06" y="131.076" width="10" height="10" rx="2" transform="rotate(0.0158183 225.06 131.076)" fill="#2280FF"/>
<path d="M17.0367 214.763C21.535 216.61 32.17 221.759 38.7238 227.577C46.916 234.848 73.4246 242.818 89.3359 225.514C105.247 208.21 112.479 201.981 124.047 201.984C135.616 201.987 143.329 199.566 156.348 181.569C169.367 163.572 173.614 154.877 189.614 154.924C205.082 154.969 212.909 165.661 216.603 171.547L225.275 185.05C228.808 190.705 238.31 200.284 252.224 201.307C266.138 202.331 276.837 197.158 287.936 188.529C298.272 180.492 316.379 171.921 331.799 188.541C344.135 201.837 350.432 206.547 352.039 207.239" stroke="#2280FF" stroke-width="3" stroke-linecap="round"/>
<path d="M-6.96517 221.49C-1.75499 222.837 10.5632 226.589 18.1546 230.827C27.6437 236.124 58.3472 241.932 76.7737 229.33C95.2002 216.728 103.576 212.192 116.974 212.195C130.373 212.199 139.306 210.436 154.383 197.329C169.46 184.222 174.377 177.888 192.909 177.925C210.824 177.959 219.89 185.749 224.169 190.036L234.215 199.873C238.308 203.992 249.314 210.971 265.429 211.718C281.545 212.465 293.936 208.698 306.79 202.414C318.76 196.562 339.731 190.32 357.593 202.428C371.882 212.114 379.176 215.546 381.036 216.05" stroke="#FF5555" stroke-width="3" stroke-linecap="round"/>
</g>
<rect x="25.9536" y="116.878" width="59.78" height="203" transform="rotate(0.0158183 25.9536 116.878)" fill="white"/>
<path d="M41.5126 126.155L41.5101 134.883L40.4533 134.882L40.4554 127.263L40.4043 127.263L38.2732 128.677L38.2735 127.603L40.4557 126.155L41.5126 126.155ZM45.061 132.497L45.0443 131.253L45.2488 131.253L48.1133 128.339L49.3576 128.339L46.3056 131.424L46.2204 131.424L45.061 132.497ZM44.1228 134.883L44.1253 126.156L45.1309 126.156L45.1285 134.884L44.1228 134.883ZM48.2819 134.885L45.726 131.645L46.4421 130.947L49.5603 134.885L48.2819 134.885Z" fill="#808D9E"/>
<path d="M48.5615 305.004C47.9194 305.004 47.3726 304.829 46.921 304.479C46.4694 304.127 46.1244 303.617 45.8859 302.949C45.6474 302.279 45.5284 301.469 45.5286 300.52C45.5289 299.577 45.6484 298.772 45.8872 298.104C46.1289 297.434 46.4756 296.922 46.9274 296.57C47.3821 296.215 47.9276 296.038 48.5639 296.038C49.2003 296.038 49.7443 296.216 50.1959 296.571C50.6503 296.924 50.9968 297.435 51.2352 298.106C51.4765 298.773 51.5971 299.579 51.5968 300.522C51.5965 301.471 51.477 302.28 51.2382 302.951C50.9994 303.618 50.654 304.128 50.2022 304.48C49.7504 304.83 49.2035 305.004 48.5615 305.004ZM48.5617 304.066C49.1981 304.067 49.6925 303.76 50.0449 303.146C50.3974 302.533 50.5738 301.658 50.5741 300.522C50.5743 299.766 50.4935 299.122 50.3317 298.591C50.1728 298.06 49.9428 297.655 49.6417 297.376C49.3435 297.098 48.9841 296.959 48.5637 296.958C47.933 296.958 47.44 297.269 47.0847 297.891C46.7295 298.511 46.5517 299.387 46.5513 300.52C46.5511 301.276 46.6305 301.918 46.7894 302.447C46.9484 302.975 47.177 303.377 47.4752 303.653C47.7763 303.928 48.1384 304.066 48.5617 304.066Z" fill="#808D9E"/>
<g clip-path="url(#clip8_256_1038)">
<path d="M28.6446 270.879L28.6448 270.112L31.5264 266.959C31.8645 266.59 32.143 266.269 32.3619 265.997C32.5807 265.721 32.7427 265.463 32.8479 265.221C32.9559 264.977 33.0099 264.721 33.01 264.454C33.0101 264.147 32.9363 263.882 32.7886 263.657C32.6438 263.433 32.445 263.259 32.1922 263.137C31.9394 263.015 31.6553 262.954 31.34 262.954C31.0047 262.954 30.7121 263.023 30.4621 263.162C30.2149 263.299 30.0231 263.49 29.8866 263.737C29.753 263.985 29.6862 264.274 29.6861 264.607L28.6804 264.606C28.6806 264.095 28.7986 263.646 29.0345 263.26C29.2704 262.874 29.5915 262.573 29.9978 262.357C30.407 262.141 30.8658 262.033 31.3743 262.033C31.8857 262.033 32.3388 262.141 32.7336 262.357C33.1284 262.574 33.438 262.865 33.6623 263.231C33.8867 263.598 33.9988 264.006 33.9986 264.454C33.9986 264.775 33.9402 265.089 33.8237 265.396C33.7099 265.7 33.511 266.04 33.2268 266.414C32.9454 266.787 32.5547 267.241 32.0545 267.778L30.0937 269.874L30.0937 269.942L34.1505 269.943L34.1503 270.881L28.6446 270.879ZM38.8425 271.001C38.2004 271.001 37.6536 270.826 37.202 270.477C36.7504 270.124 36.4054 269.614 36.1669 268.947C35.9285 268.276 35.8094 267.466 35.8096 266.517C35.8099 265.574 35.9294 264.769 36.1683 264.101C36.4099 263.431 36.7567 262.92 37.2085 262.568C37.6631 262.213 38.2086 262.035 38.845 262.035C39.4813 262.035 40.0253 262.213 40.4769 262.568C40.9314 262.921 41.2778 263.432 41.5163 264.103C41.7576 264.77 41.8781 265.576 41.8778 266.519C41.8776 267.468 41.758 268.278 41.5192 268.948C41.2804 269.616 40.9351 270.125 40.4833 270.478C40.0315 270.827 39.4845 271.001 38.8425 271.001ZM38.8428 270.064C39.4791 270.064 39.9735 269.757 40.326 269.144C40.6784 268.53 40.8548 267.655 40.8551 266.519C40.8553 265.763 40.7745 265.12 40.6127 264.588C40.4538 264.057 40.2238 263.652 39.9227 263.374C39.6245 263.095 39.2652 262.956 38.8447 262.956C38.214 262.956 37.721 263.267 37.3658 263.889C37.0105 264.508 36.8327 265.384 36.8324 266.518C36.8322 267.273 36.9115 267.915 37.0705 268.444C37.2294 268.972 37.458 269.374 37.7562 269.65C38.0573 269.926 38.4195 270.064 38.8428 270.064ZM46.4282 271.003C45.7862 271.003 45.2393 270.828 44.7877 270.479C44.3361 270.126 43.9911 269.616 43.7526 268.949C43.5142 268.278 43.3951 267.468 43.3954 266.52C43.3956 265.576 43.5152 264.771 43.754 264.103C43.9956 263.433 44.3424 262.922 44.7942 262.57C45.2488 262.215 45.7943 262.037 46.4307 262.037C47.067 262.038 47.611 262.215 48.0626 262.571C48.5171 262.923 48.8635 263.434 49.102 264.105C49.3433 264.773 49.4638 265.578 49.4635 266.521C49.4633 267.47 49.3437 268.28 49.1049 268.95C48.8661 269.618 48.5208 270.127 48.069 270.48C47.6172 270.829 47.0703 271.003 46.4282 271.003ZM46.4285 270.066C47.0648 270.066 47.5592 269.759 47.9117 269.146C48.2641 268.532 48.4405 267.657 48.4408 266.521C48.441 265.765 48.3602 265.122 48.1984 264.59C48.0395 264.059 47.8095 263.654 47.5084 263.376C47.2102 263.097 46.8509 262.958 46.4304 262.958C45.7997 262.958 45.3068 263.269 44.9515 263.891C44.5962 264.51 44.4184 265.386 44.4181 266.52C44.4179 267.275 44.4972 267.918 44.6562 268.446C44.8151 268.974 45.0437 269.377 45.3419 269.652C45.643 269.928 46.0052 270.066 46.4285 270.066Z" fill="#808D9E"/>
</g>
<g clip-path="url(#clip9_256_1038)">
<path d="M28.4498 235.089L28.4501 234.22L32.287 228.153L32.9176 228.153L32.9173 229.5L32.4911 229.499L29.5921 234.084L29.5921 234.152L34.7569 234.154L34.7566 235.091L28.4498 235.089ZM32.5573 236.88L32.5579 234.826L32.558 234.421L32.5597 228.153L33.5654 228.153L33.563 236.88L32.5573 236.88ZM39.2854 237.001C38.6433 237.001 38.0965 236.826 37.6449 236.477C37.1933 236.124 36.8482 235.614 36.6098 234.947C36.3713 234.276 36.2522 233.466 36.2525 232.518C36.2528 231.574 36.3723 230.769 36.6111 230.101C36.8528 229.431 37.1995 228.92 37.6513 228.568C38.106 228.213 38.6515 228.035 39.2878 228.035C39.9242 228.036 40.4682 228.213 40.9198 228.569C41.3742 228.921 41.7207 229.432 41.9591 230.103C42.2004 230.771 42.321 231.576 42.3207 232.519C42.3204 233.468 42.2009 234.278 41.9621 234.948C41.7232 235.616 41.3779 236.126 40.9261 236.478C40.4743 236.827 39.9274 237.002 39.2854 237.001ZM39.2856 236.064C39.922 236.064 40.4164 235.757 40.7688 235.144C41.1213 234.53 41.2977 233.655 41.298 232.519C41.2982 231.763 41.2174 231.12 41.0556 230.588C40.8967 230.057 40.6667 229.652 40.3656 229.374C40.0674 229.095 39.708 228.956 39.2876 228.956C38.6569 228.956 38.1639 229.267 37.8086 229.889C37.4534 230.508 37.2756 231.384 37.2752 232.518C37.275 233.274 37.3544 233.916 37.5133 234.444C37.6723 234.973 37.9009 235.375 38.1991 235.65C38.5002 235.926 38.8623 236.064 39.2856 236.064ZM46.8711 237.003C46.229 237.003 45.6822 236.828 45.2306 236.479C44.779 236.126 44.434 235.616 44.1955 234.949C43.9571 234.278 43.838 233.469 43.8382 232.52C43.8385 231.576 43.958 230.771 44.1968 230.104C44.4385 229.433 44.7852 228.922 45.237 228.57C45.6917 228.215 46.2372 228.037 46.8736 228.038C47.5099 228.038 48.0539 228.215 48.5055 228.571C48.96 228.923 49.3064 229.435 49.5449 230.105C49.7862 230.773 49.9067 231.578 49.9064 232.521C49.9061 233.47 49.7866 234.28 49.5478 234.95C49.309 235.618 48.9637 236.128 48.5118 236.48C48.06 236.829 47.5131 237.004 46.8711 237.003ZM46.8713 236.066C47.5077 236.066 48.0021 235.759 48.3545 235.146C48.707 234.532 48.8834 233.657 48.8837 232.521C48.8839 231.765 48.8031 231.122 48.6413 230.591C48.4824 230.059 48.2524 229.654 47.9513 229.376C47.6531 229.097 47.2938 228.958 46.8733 228.958C46.2426 228.958 45.7496 229.269 45.3943 229.891C45.0391 230.51 44.8613 231.386 44.861 232.52C44.8607 233.276 44.9401 233.918 45.0991 234.446C45.258 234.975 45.4866 235.377 45.7848 235.652C46.0859 235.928 46.448 236.066 46.8713 236.066Z" fill="#808D9E"/>
</g>
<g clip-path="url(#clip10_256_1038)">
<path d="M31.5613 202.999C31.2034 202.993 30.8454 202.925 30.4875 202.794C30.1296 202.664 29.803 202.443 29.5076 202.134C29.2122 201.821 28.9751 201.399 28.7963 200.868C28.6175 200.334 28.5282 199.663 28.5284 198.856C28.5286 198.084 28.6012 197.399 28.7463 196.802C28.8913 196.203 29.1017 195.699 29.3774 195.29C29.6531 194.878 29.9855 194.566 30.3748 194.353C30.7669 194.14 31.2087 194.033 31.7002 194.033C32.1888 194.033 32.6234 194.132 33.0041 194.328C33.3875 194.521 33.7 194.791 33.9413 195.138C34.1827 195.484 34.3389 195.884 34.4098 196.335L33.37 196.335C33.2735 195.943 33.0861 195.618 32.8078 195.359C32.5294 195.1 32.1601 194.971 31.6999 194.971C31.0238 194.971 30.491 195.265 30.1017 195.853C29.7151 196.44 29.5203 197.266 29.5172 198.328L29.5854 198.328C29.7445 198.087 29.9335 197.881 30.1523 197.71C30.3739 197.537 30.6183 197.404 30.8853 197.31C31.1524 197.216 31.4351 197.17 31.7334 197.17C32.2334 197.17 32.6908 197.295 33.1055 197.545C33.5202 197.792 33.8525 198.135 34.1023 198.572C34.3522 199.007 34.4771 199.506 34.4769 200.068C34.4768 200.608 34.3559 201.102 34.1143 201.551C33.8727 201.997 33.5331 202.352 33.0955 202.616C32.6608 202.877 32.1494 203.005 31.5613 202.999ZM31.5616 202.062C31.9195 202.062 32.2406 201.972 32.5247 201.794C32.8117 201.615 33.0376 201.375 33.2025 201.074C33.3702 200.772 33.4541 200.437 33.4542 200.068C33.4543 199.707 33.3734 199.379 33.2116 199.083C33.0526 198.785 32.8324 198.548 32.5512 198.372C32.2729 198.195 31.9547 198.107 31.5968 198.107C31.3269 198.107 31.0755 198.161 30.8425 198.269C30.6095 198.374 30.4049 198.519 30.2287 198.703C30.0554 198.888 29.9189 199.1 29.8194 199.338C29.72 199.574 29.6702 199.823 29.6701 200.084C29.67 200.431 29.7509 200.754 29.9127 201.056C30.0774 201.357 30.3018 201.6 30.5858 201.784C30.8727 201.969 31.198 202.062 31.5616 202.062ZM39.0842 203.001C38.4421 203.001 37.8953 202.826 37.4437 202.477C36.9921 202.124 36.6471 201.614 36.4086 200.947C36.1702 200.276 36.0511 199.466 36.0513 198.518C36.0516 197.574 36.1711 196.769 36.41 196.101C36.6516 195.431 36.9984 194.92 37.4502 194.568C37.9048 194.213 38.4503 194.035 39.0867 194.035C39.723 194.036 40.267 194.213 40.7186 194.569C41.1731 194.921 41.5195 195.432 41.758 196.103C41.9993 196.771 42.1198 197.576 42.1195 198.519C42.1193 199.468 41.9997 200.278 41.7609 200.948C41.5221 201.616 41.1768 202.125 40.725 202.478C40.2732 202.827 39.7262 203.001 39.0842 203.001ZM39.0845 202.064C39.7208 202.064 40.2152 201.757 40.5677 201.144C40.9201 200.53 41.0965 199.655 41.0968 198.519C41.097 197.763 41.0162 197.12 40.8544 196.588C40.6955 196.057 40.4655 195.652 40.1644 195.374C39.8662 195.095 39.5069 194.956 39.0864 194.956C38.4557 194.956 37.9627 195.267 37.6075 195.889C37.2522 196.508 37.0744 197.384 37.0741 198.518C37.0739 199.273 37.1532 199.916 37.3122 200.444C37.4711 200.972 37.6997 201.374 37.9979 201.65C38.299 201.926 38.6612 202.064 39.0845 202.064ZM46.6699 203.003C46.0279 203.003 45.481 202.828 45.0294 202.479C44.5778 202.126 44.2328 201.616 43.9943 200.949C43.7559 200.278 43.6368 199.468 43.6371 198.52C43.6373 197.576 43.7569 196.771 43.9957 196.104C44.2373 195.433 44.5841 194.922 45.0359 194.57C45.4905 194.215 46.036 194.037 46.6724 194.037C47.3087 194.038 47.8527 194.215 48.3043 194.571C48.7588 194.923 49.1052 195.434 49.3437 196.105C49.585 196.773 49.7055 197.578 49.7052 198.521C49.705 199.47 49.5854 200.28 49.3466 200.95C49.1078 201.618 48.7625 202.128 48.3107 202.48C47.8589 202.829 47.312 203.004 46.6699 203.003ZM46.6702 202.066C47.3065 202.066 47.8009 201.759 48.1534 201.146C48.5058 200.532 48.6822 199.657 48.6825 198.521C48.6827 197.765 48.6019 197.122 48.4401 196.591C48.2812 196.059 48.0512 195.654 47.7501 195.376C47.4519 195.097 47.0926 194.958 46.6721 194.958C46.0414 194.958 45.5485 195.269 45.1932 195.891C44.8379 196.51 44.6601 197.386 44.6598 198.52C44.6596 199.276 44.7389 199.918 44.8979 200.446C45.0568 200.975 45.2854 201.377 45.5836 201.652C45.8847 201.928 46.2469 202.066 46.6702 202.066Z" fill="#808D9E"/>
</g>
<g clip-path="url(#clip11_256_1038)">
<path d="M31.4683 168.999C30.8831 168.999 30.3661 168.895 29.9173 168.688C29.4713 168.477 29.1234 168.189 28.8735 167.822C28.6236 167.453 28.5001 167.032 28.5031 166.561C28.5004 166.192 28.5729 165.851 28.7207 165.538C28.8685 165.223 29.0703 164.96 29.326 164.75C29.5846 164.537 29.873 164.402 30.1912 164.345L30.1912 164.294C29.7736 164.186 29.4413 163.952 29.1943 163.591C28.9472 163.227 28.8252 162.814 28.8281 162.351C28.8254 161.908 28.9377 161.511 29.1651 161.162C29.3925 160.813 29.7051 160.537 30.1028 160.335C30.5035 160.134 30.9595 160.033 31.4708 160.033C31.9765 160.033 32.4282 160.134 32.8258 160.336C33.2235 160.538 33.5359 160.814 33.7631 161.163C33.9931 161.513 34.1095 161.909 34.1122 162.352C34.1093 162.815 33.9827 163.229 33.7326 163.592C33.4854 163.953 33.1572 164.187 32.748 164.295L32.748 164.346C33.0634 164.403 33.3474 164.538 33.6002 164.751C33.853 164.962 34.0546 165.224 34.2051 165.54C34.3556 165.852 34.4322 166.193 34.4349 166.563C34.4319 167.034 34.304 167.455 34.051 167.824C33.8009 168.19 33.4529 168.478 33.0068 168.689C32.5635 168.896 32.0507 168.999 31.4683 168.999ZM31.4686 168.062C31.8635 168.062 32.2044 167.998 32.4914 167.87C32.7783 167.742 33 167.562 33.1563 167.329C33.3126 167.096 33.3922 166.824 33.3952 166.511C33.3924 166.182 33.3073 165.89 33.1397 165.637C32.9722 165.385 32.7435 165.186 32.4538 165.041C32.1669 164.896 31.8388 164.823 31.4695 164.823C31.0973 164.823 30.7649 164.895 30.4723 165.04C30.1825 165.185 29.9537 165.384 29.786 165.637C29.6212 165.889 29.5401 166.18 29.5429 166.51C29.54 166.823 29.6152 167.095 29.7685 167.328C29.9247 167.561 30.1477 167.742 30.4374 167.87C30.7271 167.998 31.0709 168.062 31.4686 168.062ZM31.4697 163.92C31.7822 163.92 32.0592 163.857 32.3008 163.732C32.5451 163.607 32.7369 163.433 32.8762 163.208C33.0155 162.984 33.0865 162.721 33.0895 162.42C33.0867 162.125 33.0172 161.868 32.8809 161.649C32.7446 161.427 32.5557 161.257 32.3143 161.137C32.0728 161.015 31.7916 160.954 31.4706 160.954C31.1439 160.954 30.8583 161.015 30.614 161.137C30.3696 161.256 30.1807 161.426 30.0471 161.648C29.9135 161.867 29.8481 162.124 29.8508 162.419C29.8479 162.72 29.9146 162.983 30.0509 163.208C30.19 163.432 30.3818 163.607 30.626 163.732C30.8703 163.857 31.1516 163.92 31.4697 163.92ZM38.9997 169.001C38.3577 169.001 37.8108 168.826 37.3592 168.477C36.9076 168.124 36.5626 167.614 36.3242 166.947C36.0857 166.276 35.9666 165.466 35.9669 164.517C35.9671 163.574 36.0867 162.769 36.3255 162.101C36.5672 161.431 36.9139 160.92 37.3657 160.568C37.8203 160.213 38.3658 160.035 39.0022 160.035C39.6386 160.036 40.1825 160.213 40.6342 160.568C41.0886 160.921 41.435 161.432 41.6735 162.103C41.9148 162.771 42.0353 163.576 42.035 164.519C42.0348 165.468 41.9152 166.278 41.6764 166.948C41.4376 167.616 41.0923 168.125 40.6405 168.478C40.1887 168.827 39.6418 169.001 38.9997 169.001ZM39 168.064C39.6363 168.064 40.1307 167.757 40.4832 167.144C40.8356 166.53 41.012 165.655 41.0123 164.519C41.0125 163.763 40.9317 163.12 40.77 162.588C40.611 162.057 40.381 161.652 40.08 161.374C39.7817 161.095 39.4224 160.956 39.0019 160.956C38.3713 160.956 37.8783 161.267 37.523 161.889C37.1677 162.508 36.9899 163.384 36.9896 164.518C36.9894 165.273 37.0688 165.916 37.2277 166.444C37.3866 166.972 37.6152 167.374 37.9134 167.65C38.2145 167.926 38.5767 168.064 39 168.064ZM46.5854 169.003C45.9434 169.003 45.3966 168.828 44.945 168.479C44.4933 168.126 44.1483 167.616 43.9099 166.949C43.6714 166.278 43.5523 165.468 43.5526 164.52C43.5528 163.576 43.6724 162.771 43.9112 162.103C44.1529 161.433 44.4996 160.922 44.9514 160.57C45.406 160.215 45.9515 160.037 46.5879 160.037C47.2243 160.038 47.7683 160.215 48.2199 160.571C48.6743 160.923 49.0208 161.434 49.2592 162.105C49.5005 162.773 49.621 163.578 49.6208 164.521C49.6205 165.47 49.501 166.28 49.2621 166.95C49.0233 167.618 48.678 168.128 48.2262 168.48C47.7744 168.829 47.2275 169.004 46.5854 169.003ZM46.5857 168.066C47.2221 168.066 47.7165 167.759 48.0689 167.146C48.4213 166.532 48.5977 165.657 48.598 164.521C48.5982 163.765 48.5175 163.122 48.3557 162.591C48.1967 162.059 47.9667 161.654 47.6657 161.376C47.3674 161.097 47.0081 160.958 46.5877 160.958C45.957 160.958 45.464 161.269 45.1087 161.891C44.7534 162.51 44.5756 163.386 44.5753 164.52C44.5751 165.276 44.6545 165.918 44.8134 166.446C44.9724 166.975 45.2009 167.377 45.4992 167.652C45.8002 167.928 46.1624 168.066 46.5857 168.066Z" fill="#808D9E"/>
</g>
<g filter="url(#filter2_d_256_1038)">
<rect x="198.054" y="150.926" width="14" height="14" rx="7" transform="rotate(0.0158183 198.054 150.926)" fill="#2280FF"/>
<rect x="199.054" y="151.926" width="12" height="12" rx="6" transform="rotate(0.0158183 199.054 151.926)" stroke="white" stroke-width="2"/>
</g>
<rect x="195.543" y="81.9252" width="12.2" height="10" rx="2" transform="rotate(0.0158183 195.543 81.9252)" fill="#FF5555"/>
<path d="M226.929 84.9338L225.696 84.9335C225.623 84.5788 225.495 84.2673 225.313 83.9987C225.134 83.7302 224.915 83.5048 224.657 83.3224C224.402 83.1367 224.118 82.9975 223.807 82.9046C223.495 82.8117 223.171 82.7652 222.833 82.7651C222.216 82.7649 221.658 82.9205 221.157 83.232C220.66 83.5434 220.264 84.0023 219.968 84.6088C219.677 85.2152 219.531 85.9593 219.53 86.8409C219.53 87.7225 219.676 88.4666 219.967 89.0733C220.262 89.6799 220.658 90.139 221.155 90.4507C221.655 90.7624 222.214 90.9183 222.83 90.9185C223.168 90.9186 223.493 90.8723 223.805 90.7796C224.116 90.6869 224.4 90.5494 224.655 90.3672C224.914 90.1816 225.132 89.9547 225.311 89.6862C225.494 89.4145 225.622 89.103 225.695 88.7517L226.927 88.752C226.835 89.2724 226.665 89.738 226.42 90.1489C226.175 90.5598 225.87 90.9094 225.505 91.1977C225.14 91.4826 224.731 91.6996 224.277 91.8486C223.826 91.9976 223.344 92.0721 222.83 92.0719C221.962 92.0717 221.189 91.8593 220.513 91.4349C219.837 91.0105 219.306 90.4071 218.918 89.6248C218.53 88.8425 218.337 87.9144 218.337 86.8406C218.337 85.7667 218.532 84.8387 218.92 84.0566C219.308 83.2745 219.84 82.6715 220.516 82.2474C221.192 81.8234 221.964 81.6114 222.833 81.6117C223.347 81.6118 223.829 81.6865 224.28 81.8358C224.734 81.9851 225.143 82.2039 225.507 82.4924C225.872 82.7775 226.177 83.1256 226.422 83.5367C226.667 83.9444 226.836 84.4101 226.929 84.9338ZM231.362 92.0942C230.673 92.094 230.068 91.9297 229.548 91.6015C229.031 91.2732 228.626 90.814 228.335 90.224C228.047 89.634 227.903 88.9445 227.903 88.1557C227.903 87.3602 228.048 86.6659 228.336 86.0727C228.628 85.4795 229.032 85.0189 229.55 84.691C230.07 84.363 230.675 84.1991 231.364 84.1993C232.054 84.1995 232.657 84.3637 233.174 84.692C233.694 85.0202 234.098 85.481 234.386 86.0744C234.678 86.6678 234.824 87.3622 234.823 88.1576C234.823 88.9464 234.677 89.6358 234.385 90.2257C234.097 90.8156 233.692 91.2745 233.172 91.6025C232.655 91.9305 232.051 92.0943 231.362 92.0942ZM231.362 91.0402C231.886 91.0403 232.317 90.9062 232.655 90.6378C232.993 90.3695 233.244 90.0166 233.406 89.5791C233.569 89.1416 233.65 88.6677 233.65 88.1573C233.65 87.6469 233.569 87.1712 233.407 86.7304C233.245 86.2895 232.994 85.9331 232.656 85.6613C232.319 85.3894 231.888 85.2534 231.364 85.2532C230.84 85.2531 230.409 85.3889 230.071 85.6606C229.733 85.9322 229.483 86.2885 229.32 86.7292C229.158 87.17 229.076 87.6456 229.076 88.156C229.076 88.6664 229.157 89.1404 229.319 89.578C229.482 90.0155 229.732 90.3686 230.07 90.6371C230.408 90.9057 230.839 91.04 231.362 91.0402ZM236.113 91.9364L236.115 84.3L237.249 84.3003L237.249 85.4935L237.348 85.4935C237.507 85.0859 237.764 84.7695 238.119 84.5442C238.474 84.3156 238.9 84.2014 239.397 84.2015C239.901 84.2016 240.32 84.3161 240.654 84.5449C240.992 84.7703 241.256 85.0869 241.445 85.4947L241.524 85.4947C241.72 85.1003 242.013 84.7872 242.404 84.5553C242.796 84.3201 243.265 84.2026 243.812 84.2027C244.494 84.2029 245.053 84.4168 245.487 84.8445C245.921 85.2689 246.138 85.9301 246.138 86.8283L246.136 91.9391L244.963 91.9388L244.964 86.828C244.964 86.2646 244.81 85.8618 244.502 85.6198C244.194 85.3778 243.831 85.2567 243.414 85.2566C242.877 85.2564 242.461 85.4187 242.166 85.7434C241.87 86.0649 241.723 86.4725 241.723 86.9663L241.721 91.9379L240.528 91.9376L240.53 86.7075C240.53 86.2733 240.389 85.9236 240.107 85.6584C239.826 85.3898 239.463 85.2555 239.019 85.2554C238.714 85.2553 238.429 85.3364 238.163 85.4987C237.902 85.6611 237.689 85.8864 237.527 86.1747C237.368 86.4597 237.288 86.7894 237.288 87.164L237.287 91.9367L236.113 91.9364ZM247.781 94.8032L247.783 84.3032L248.917 84.3035L248.917 85.5166L249.056 85.5167C249.142 85.3841 249.261 85.2151 249.414 85.0097C249.57 84.8009 249.792 84.6153 250.08 84.453C250.372 84.2874 250.766 84.2046 251.264 84.2048C251.907 84.2049 252.473 84.3658 252.964 84.6875C253.454 85.0091 253.837 85.4649 254.112 86.055C254.387 86.645 254.524 87.3411 254.524 88.1432C254.524 88.9519 254.386 89.6528 254.111 90.246C253.835 90.8359 253.454 91.2932 252.967 91.6179C252.48 91.9392 251.918 92.0998 251.281 92.0997C250.791 92.0995 250.398 92.0182 250.103 91.8557C249.808 91.6899 249.581 91.5026 249.422 91.2937C249.263 91.0816 249.141 90.9059 249.054 90.7667L248.955 90.7666L248.954 94.8036L247.781 94.8032ZM248.936 88.1217C248.936 88.6984 249.02 89.2072 249.189 89.6481C249.358 90.0856 249.605 90.4287 249.929 90.6774C250.254 90.9228 250.652 91.0455 251.123 91.0456C251.613 91.0458 252.022 90.9166 252.351 90.6582C252.682 90.3964 252.931 90.0452 253.097 89.6044C253.266 89.1603 253.35 88.6665 253.351 88.123C253.351 87.586 253.268 87.1021 253.102 86.6712C252.94 86.237 252.693 85.8938 252.362 85.6419C252.034 85.3866 251.621 85.2588 251.124 85.2587C250.647 85.2586 250.246 85.3794 249.921 85.6213C249.596 85.8598 249.351 86.1945 249.185 86.6254C249.019 87.0529 248.936 87.5517 248.936 88.1217ZM259.014 92.1018C258.278 92.1016 257.644 91.939 257.11 91.614C256.58 91.2858 256.171 90.8283 255.883 90.2416C255.598 89.6515 255.455 88.9654 255.456 88.1832C255.456 87.401 255.599 86.7116 255.884 86.1151C256.172 85.5153 256.574 85.0481 257.087 84.7135C257.604 84.3755 258.208 84.2067 258.897 84.2069C259.295 84.207 259.688 84.2734 260.075 84.4061C260.463 84.5387 260.816 84.7543 261.134 85.0527C261.452 85.3477 261.706 85.7389 261.894 86.2262C262.083 86.7134 262.178 87.3134 262.177 88.026L262.177 88.5231L256.291 88.5215L256.291 87.5073L260.984 87.5086C260.984 87.0777 260.898 86.6932 260.726 86.3551C260.557 86.017 260.315 85.7501 260 85.5545C259.689 85.3588 259.321 85.261 258.897 85.2608C258.43 85.2607 258.025 85.3766 257.684 85.6085C257.346 85.8371 257.085 86.1353 256.903 86.5032C256.72 86.871 256.629 87.2654 256.629 87.6864L256.629 88.3625C256.629 88.9392 256.728 89.4281 256.927 89.8292C257.129 90.227 257.409 90.5303 257.767 90.7392C258.125 90.9448 258.541 91.0477 259.015 91.0478C259.323 91.0479 259.601 91.0049 259.85 90.9188C260.102 90.8294 260.319 90.6968 260.501 90.5212C260.684 90.3423 260.824 90.1203 260.924 89.8552L262.057 90.1737C261.938 90.5581 261.737 90.8961 261.456 91.1877C261.174 91.476 260.826 91.7012 260.411 91.8635C259.997 92.0225 259.531 92.1019 259.014 92.1018ZM266.784 84.3085L266.784 85.3028L262.827 85.3017L262.827 84.3074L266.784 84.3085ZM263.981 82.4782L265.154 82.4785L265.152 89.7569C265.152 90.0883 265.2 90.3369 265.296 90.5027C265.395 90.6651 265.521 90.7745 265.674 90.8309C265.829 90.884 265.994 90.9105 266.166 90.9106C266.295 90.9106 266.401 90.904 266.484 90.8908C266.567 90.8742 266.633 90.861 266.683 90.8511L266.921 91.9051C266.842 91.9349 266.731 91.9647 266.588 91.9945C266.446 92.0276 266.265 92.0441 266.046 92.0441C265.715 92.044 265.39 91.9726 265.072 91.83C264.757 91.6874 264.495 91.4703 264.287 91.1785C264.081 90.8868 263.978 90.5189 263.979 90.0748L263.981 82.4782ZM268.047 91.9452L268.049 84.3088L269.222 84.3092L269.22 91.9455L268.047 91.9452ZM268.646 83.0363C268.417 83.0362 268.22 82.9583 268.054 82.8024C267.892 82.6466 267.811 82.4593 267.811 82.2406C267.811 82.0218 267.892 81.8346 268.055 81.6789C268.221 81.5231 268.418 81.4453 268.646 81.4454C268.875 81.4454 269.071 81.5234 269.233 81.6792C269.399 81.835 269.482 82.0223 269.481 82.241C269.481 82.4598 269.399 82.647 269.233 82.8028C269.07 82.9585 268.875 83.0363 268.646 83.0363ZM274.192 84.3105L274.192 85.3048L270.235 85.3038L270.235 84.3094L274.192 84.3105ZM271.389 82.4802L272.562 82.4805L272.56 89.7589C272.56 90.0904 272.608 90.339 272.704 90.5047C272.804 90.6672 272.929 90.7766 273.082 90.8329C273.238 90.886 273.402 90.9126 273.574 90.9126C273.703 90.9127 273.809 90.9061 273.892 90.8928C273.975 90.8763 274.041 90.863 274.091 90.8531L274.329 91.9072C274.25 91.937 274.139 91.9668 273.996 91.9966C273.854 92.0297 273.673 92.0462 273.454 92.0461C273.123 92.046 272.798 91.9747 272.48 91.8321C272.165 91.6895 271.903 91.4723 271.695 91.1806C271.489 90.8889 271.387 90.5209 271.387 90.0768L271.389 82.4802ZM278.475 92.1072C277.786 92.107 277.181 91.9427 276.661 91.6145C276.144 91.2862 275.74 90.8271 275.448 90.237C275.16 89.647 275.016 88.9575 275.016 88.1687C275.016 87.3733 275.161 86.6789 275.449 86.0857C275.741 85.4925 276.146 85.0319 276.663 84.704C277.183 84.376 277.788 84.2121 278.478 84.2123C279.167 84.2125 279.77 84.3767 280.287 84.705C280.807 85.0332 281.212 85.494 281.5 86.0874C281.791 86.6808 281.937 87.3752 281.937 88.1706C281.936 88.9594 281.79 89.6488 281.499 90.2387C281.21 90.8286 280.806 91.2875 280.285 91.6155C279.768 91.9435 279.165 92.1074 278.475 92.1072ZM278.476 91.0532C278.999 91.0533 279.43 90.9192 279.768 90.6508C280.107 90.3825 280.357 90.0296 280.519 89.5921C280.682 89.1546 280.763 88.6807 280.763 88.1703C280.764 87.6599 280.682 87.1842 280.52 86.7434C280.358 86.3025 280.108 85.9462 279.77 85.6743C279.432 85.4024 279.001 85.2664 278.477 85.2663C277.954 85.2661 277.523 85.4019 277.185 85.6736C276.846 85.9453 276.596 86.3015 276.434 86.7423C276.271 87.183 276.19 87.6586 276.19 88.169C276.189 88.6794 276.27 89.1534 276.433 89.591C276.595 90.0285 276.845 90.3816 277.183 90.6501C277.521 90.9187 277.952 91.053 278.476 91.0532ZM283.227 91.9494L283.229 84.313L284.362 84.3133L284.362 85.4667L284.442 85.4668C284.581 85.089 284.833 84.7825 285.197 84.5472C285.562 84.312 285.973 84.1945 286.431 84.1946C286.517 84.1946 286.624 84.1963 286.754 84.1996C286.883 84.203 286.981 84.208 287.047 84.2146L287.047 85.4078C287.007 85.3979 286.916 85.3829 286.773 85.363C286.634 85.3398 286.487 85.3281 286.331 85.3281C285.96 85.328 285.628 85.4058 285.336 85.5615C285.048 85.7139 284.819 85.9259 284.65 86.1976C284.484 86.4661 284.401 86.7726 284.401 87.1173L284.4 91.9497L283.227 91.9494Z" fill="#1D1E25"/>
<rect x="27.1836" y="81.8787" width="12.2" height="10" rx="2" transform="rotate(0.0158183 27.1836 81.8787)" fill="#2280FF"/>
<path d="M50.3764 81.7033L51.848 81.7037L55.3059 90.1563L55.4252 90.1564L58.8877 81.7056L60.3593 81.706L60.3565 91.8879L59.2031 91.8875L59.2052 84.1517L59.1058 84.1517L55.9219 91.8866L54.8082 91.8863L51.6285 84.1496L51.5291 84.1496L51.527 91.8854L50.3736 91.8851L50.3764 81.7033ZM62.9244 94.7522C62.7256 94.7521 62.5483 94.7355 62.3925 94.7023C62.2367 94.6725 62.129 94.6426 62.0694 94.6128L62.3679 93.5788C62.653 93.6517 62.9048 93.6783 63.1236 93.6585C63.3424 93.6387 63.5363 93.541 63.7054 93.3653C63.8778 93.193 64.0353 92.913 64.1779 92.5253L64.3968 91.9287L61.5751 84.2518L62.8478 84.2522L64.9541 90.338L65.0336 90.338L67.1432 84.2534L68.416 84.2537L65.1721 93.0028C65.0261 93.3972 64.8454 93.7236 64.6299 93.9821C64.4144 94.2439 64.1641 94.4377 63.879 94.5635C63.5973 94.6894 63.2791 94.7523 62.9244 94.7522ZM72.8992 94.755L72.9021 84.255L74.0356 84.2553L74.0353 85.4683L74.1745 85.4684C74.2607 85.3358 74.3801 85.1668 74.5326 84.9614C74.6884 84.7526 74.9106 84.5671 75.199 84.4047C75.4907 84.2391 75.8851 84.1563 76.3823 84.1565C77.0253 84.1567 77.592 84.3176 78.0824 84.6392C78.5729 84.9608 78.9555 85.4167 79.2305 86.0067C79.5054 86.5967 79.6428 87.2928 79.6425 88.0949C79.6423 88.9036 79.5046 89.6046 79.2293 90.1978C78.9541 90.7876 78.5728 91.2449 78.0855 91.5696C77.5982 91.891 77.0363 92.0516 76.4 92.0514C75.9094 92.0512 75.5167 91.9699 75.2218 91.8074C74.9268 91.6416 74.6998 91.4543 74.5408 91.2455C74.3818 91.0333 74.2592 90.8576 74.1731 90.7184L74.0736 90.7183L74.0725 94.7553L72.8992 94.755ZM74.0545 88.0735C74.0543 88.6502 74.1387 89.1589 74.3076 89.5998C74.4765 90.0373 74.7233 90.3805 75.0481 90.6291C75.3728 90.8745 75.7705 90.9972 76.2412 90.9974C76.7317 90.9975 77.1411 90.8683 77.4693 90.6099C77.8008 90.3482 78.0494 89.9969 78.2153 89.5561C78.3844 89.1121 78.4691 88.6182 78.4692 88.0747C78.4694 87.5377 78.3867 87.0538 78.2211 86.6229C78.0588 86.1887 77.812 85.8456 77.4806 85.5936C77.1525 85.3383 76.7399 85.2106 76.2428 85.2104C75.7655 85.2103 75.3644 85.3312 75.0395 85.573C74.7147 85.8116 74.4693 86.1462 74.3035 86.5771C74.1376 87.0046 74.0546 87.5034 74.0545 88.0735ZM80.9313 91.8935L80.9334 84.2572L82.0669 84.2575L82.0666 85.4109L82.1461 85.4109C82.2854 85.0331 82.5374 84.7266 82.9021 84.4914C83.2667 84.2562 83.6777 84.1386 84.1351 84.1387C84.2213 84.1388 84.329 84.1404 84.4583 84.1438C84.5875 84.1471 84.6853 84.1521 84.7516 84.1588L84.7512 85.352C84.7115 85.342 84.6203 85.3271 84.4778 85.3072C84.3386 85.2839 84.1911 85.2723 84.0354 85.2722C83.6641 85.2721 83.3327 85.3499 83.041 85.5056C82.7526 85.658 82.5238 85.8701 82.3547 86.1418C82.1889 86.4102 82.106 86.7168 82.1059 87.0615L82.1046 91.8939L80.9313 91.8935ZM88.5101 92.0547C87.8207 92.0545 87.2158 91.8903 86.6956 91.562C86.1786 91.2338 85.7744 90.7746 85.4829 90.1846C85.1947 89.5945 85.0507 88.9051 85.0509 88.1163C85.0511 87.3208 85.1955 86.6265 85.484 86.0333C85.7758 85.4401 86.1803 84.9795 86.6975 84.6515C87.2179 84.3235 87.8228 84.1596 88.5122 84.1598C89.2016 84.16 89.8048 84.3243 90.3218 84.6525C90.842 84.9808 91.2463 85.4416 91.5344 86.035C91.8259 86.6283 91.9716 87.3227 91.9714 88.1182C91.9711 88.907 91.8251 89.5964 91.5333 90.1862C91.2448 90.7761 90.8403 91.235 90.3198 91.563C89.8027 91.891 89.1994 92.0549 88.5101 92.0547ZM88.5103 91.0007C89.034 91.0009 89.4649 90.8668 89.8031 90.5984C90.1412 90.33 90.3915 89.9771 90.5541 89.5397C90.7166 89.1022 90.7979 88.6283 90.7981 88.1178C90.7982 87.6074 90.7171 87.1318 90.5549 86.6909C90.3926 86.2501 90.1424 85.8937 89.8044 85.6218C89.4664 85.35 89.0356 85.214 88.5119 85.2138C87.9883 85.2137 87.5574 85.3494 87.2192 85.6211C86.8811 85.8928 86.6307 86.249 86.4682 86.6898C86.3057 87.1306 86.2243 87.6062 86.2242 88.1166C86.2241 88.627 86.3051 89.101 86.4674 89.5385C86.6297 89.9761 86.8798 90.3291 87.2178 90.5977C87.5558 90.8662 87.9867 91.0006 88.5103 91.0007ZM96.1448 92.0568C95.5085 92.0567 94.9467 91.8957 94.4596 91.5741C93.9725 91.2492 93.5914 90.7917 93.3165 90.2016C93.0416 89.6083 92.9042 88.9073 92.9044 88.0985C92.9047 87.2965 93.0424 86.6005 93.3177 86.0106C93.5929 85.4207 93.9758 84.9651 94.4665 84.6437C94.9571 84.3224 95.5239 84.1618 96.1669 84.1619C96.664 84.1621 97.0568 84.2451 97.3451 84.4109C97.6367 84.5733 97.8587 84.759 98.0111 84.9679C98.1668 85.1734 98.2878 85.3425 98.3739 85.4751L98.4733 85.4751L98.4744 81.7166L99.6477 81.7169L99.6449 91.8987L98.5113 91.8984L98.5117 90.7251L98.3725 90.7251C98.2862 90.8642 98.1636 91.0399 98.0044 91.2519C97.8453 91.4607 97.6182 91.6479 97.3232 91.8135C97.0281 91.9759 96.6353 92.057 96.1448 92.0568ZM96.3042 91.0029C96.7748 91.003 97.1726 90.8805 97.4975 90.6353C97.8224 90.3868 98.0694 90.0439 98.2385 89.6064C98.4077 89.1656 98.4923 88.6569 98.4925 88.0802C98.4927 87.5101 98.4099 87.0113 98.2443 86.5837C98.0787 86.1528 97.8336 85.8179 97.5088 85.5792C97.1841 85.3372 96.7831 85.2161 96.3058 85.216C95.8086 85.2158 95.3943 85.3433 95.0628 85.5984C94.7346 85.8502 94.4876 86.1932 94.3217 86.6273C94.1592 87.0582 94.0779 87.5421 94.0777 88.079C94.0776 88.6225 94.1603 89.1164 94.3259 89.5606C94.4948 90.0014 94.7433 90.3528 95.0714 90.6148C95.4027 90.8734 95.8137 91.0028 96.3042 91.0029ZM106.27 88.7784L106.271 84.2642L107.445 84.2645L107.442 91.9009L106.269 91.9005L106.27 90.6079L106.19 90.6079C106.011 90.9956 105.732 91.3253 105.354 91.597C104.977 91.8654 104.499 91.9995 103.923 91.9993C103.445 91.9992 103.021 91.8947 102.65 91.6858C102.279 91.4735 101.987 91.1553 101.775 90.731C101.563 90.3034 101.457 89.7647 101.457 89.1151L101.459 84.2628L102.632 84.2632L102.631 89.0359C102.631 89.5927 102.786 90.0369 103.098 90.3684C103.412 90.6999 103.813 90.8658 104.301 90.8659C104.592 90.866 104.889 90.7915 105.191 90.6424C105.496 90.4934 105.751 90.2647 105.956 89.9566C106.165 89.6484 106.27 89.2556 106.27 88.7784ZM112.194 92.0613C111.478 92.0611 110.861 91.8919 110.344 91.5536C109.827 91.2154 109.43 90.7497 109.152 90.1563C108.873 89.5629 108.734 88.8851 108.735 88.1228C108.735 87.3472 108.877 86.6629 109.163 86.0697C109.451 85.4731 109.852 85.0076 110.366 84.673C110.883 84.335 111.487 84.1662 112.176 84.1664C112.713 84.1665 113.197 84.2661 113.628 84.4651C114.058 84.664 114.411 84.9426 114.686 85.3006C114.961 85.6586 115.132 86.0763 115.198 86.5536L114.025 86.5532C113.935 86.2052 113.737 85.8969 113.428 85.6284C113.124 85.3565 112.713 85.2205 112.196 85.2203C111.738 85.2202 111.337 85.3394 110.992 85.578C110.651 85.8132 110.384 86.1462 110.192 86.577C110.003 87.0045 109.908 87.5066 109.908 88.0834C109.908 88.6733 110 89.1871 110.186 89.6246C110.375 90.0622 110.64 90.402 110.981 90.644C111.326 90.8861 111.73 91.0072 112.194 91.0073C112.499 91.0074 112.776 90.9544 113.024 90.8484C113.273 90.7424 113.483 90.59 113.656 90.3912C113.828 90.1924 113.951 89.9538 114.024 89.6754L115.197 89.6757C115.131 90.1265 114.967 90.5324 114.705 90.8936C114.446 91.2515 114.103 91.5365 113.675 91.7485C113.251 91.9571 112.757 92.0614 112.194 92.0613ZM119.735 84.2679L119.735 85.2622L115.777 85.2611L115.777 84.2668L119.735 84.2679ZM116.931 82.4376L118.105 82.4379L118.103 89.7163C118.103 90.0477 118.151 90.2963 118.247 90.4621C118.346 90.6245 118.472 90.7339 118.624 90.7903C118.78 90.8434 118.944 90.8699 119.117 90.87C119.246 90.87 119.352 90.8634 119.435 90.8502C119.518 90.8336 119.584 90.8204 119.634 90.8105L119.872 91.8645C119.792 91.8943 119.681 91.9241 119.539 91.9539C119.396 91.987 119.216 92.0035 118.997 92.0035C118.665 92.0034 118.341 91.932 118.023 91.7894C117.708 91.6468 117.446 91.4297 117.237 91.1379C117.032 90.8462 116.929 90.4783 116.929 90.0342L116.931 82.4376Z" fill="#1D1E25"/>
</g>
</g>
<defs>
<filter id="filter0_d_256_1038" x="-60" y="-39.1288" width="579.096" height="506.116" filterUnits="userSpaceOnUse" color-interpolation-filters="sRGB">
<feFlood flood-opacity="0" result="BackgroundImageFix"/>
<feColorMatrix in="SourceAlpha" type="matrix" values="0 0 0 0 0 0 0 0 0 0 0 0 0 0 0 0 0 0 127 0" result="hardAlpha"/>
<feOffset dx="20" dy="40"/>
<feGaussianBlur stdDeviation="40"/>
<feComposite in2="hardAlpha" operator="out"/>
<feColorMatrix type="matrix" values="0 0 0 0 0.348368 0 0 0 0 0.377296 0 0 0 0 0.529167 0 0 0 0.12 0"/>
<feBlend mode="multiply" in2="BackgroundImageFix" result="effect1_dropShadow_256_1038"/>
<feBlend mode="normal" in="SourceGraphic" in2="effect1_dropShadow_256_1038" result="shape"/>
</filter>
<filter id="filter1_d_256_1038" x="192.053" y="98.9336" width="116.007" height="82.0133" filterUnits="userSpaceOnUse" color-interpolation-filters="sRGB">
<feFlood flood-opacity="0" result="BackgroundImageFix"/>
<feColorMatrix in="SourceAlpha" type="matrix" values="0 0 0 0 0 0 0 0 0 0 0 0 0 0 0 0 0 0 127 0" result="hardAlpha"/>
<feOffset dy="4"/>
<feGaussianBlur stdDeviation="11"/>
<feComposite in2="hardAlpha" operator="out"/>
<feColorMatrix type="matrix" values="0 0 0 0 0.624722 0 0 0 0 0.6401 0 0 0 0 0.720833 0 0 0 0.25 0"/>
<feBlend mode="multiply" in2="BackgroundImageFix" result="effect1_dropShadow_256_1038"/>
<feBlend mode="normal" in="SourceGraphic" in2="effect1_dropShadow_256_1038" result="shape"/>
</filter>
<filter id="filter2_d_256_1038" x="194.052" y="148.928" width="22" height="22" filterUnits="userSpaceOnUse" color-interpolation-filters="sRGB">
<feFlood flood-opacity="0" result="BackgroundImageFix"/>
<feColorMatrix in="SourceAlpha" type="matrix" values="0 0 0 0 0 0 0 0 0 0 0 0 0 0 0 0 0 0 127 0" result="hardAlpha"/>
<feOffset dy="2"/>
<feGaussianBlur stdDeviation="2"/>
<feColorMatrix type="matrix" values="0 0 0 0 0.268354 0 0 0 0 0.268354 0 0 0 0 0.31049 0 0 0 0.15 0"/>
<feBlend mode="normal" in2="BackgroundImageFix" result="effect1_dropShadow_256_1038"/>
<feBlend mode="normal" in="SourceGraphic" in2="effect1_dropShadow_256_1038" result="shape"/>
</filter>
<linearGradient id="paint0_linear_256_1038" x1="206.513" y1="120.928" x2="206.462" y2="303.928" gradientUnits="userSpaceOnUse">
<stop stop-color="#2A85FF"/>
<stop offset="1" stop-color="#2A85FF" stop-opacity="0"/>
</linearGradient>
<clipPath id="clip0_256_1038">
<rect width="366" height="260" fill="white" transform="translate(26.5776 66.8785) rotate(0.0158183)"/>
</clipPath>
<clipPath id="clip1_256_1038">
<rect width="26.84" height="206" fill="white" transform="translate(351.692 120.968) rotate(0.0158183)"/>
</clipPath>
<clipPath id="clip2_256_1038">
<rect width="29.28" height="206" fill="white" transform="translate(298.013 120.953) rotate(0.0158183)"/>
</clipPath>
<clipPath id="clip3_256_1038">
<rect width="30.5" height="206" fill="white" transform="translate(243.113 120.938) rotate(0.0158183)"/>
</clipPath>
<clipPath id="clip4_256_1038">
<rect width="48.8" height="206" fill="white" transform="translate(182.113 120.921) rotate(0.0158183)"/>
</clipPath>
<clipPath id="clip5_256_1038">
<rect width="29.28" height="206" fill="white" transform="translate(140.633 120.91) rotate(0.0158183)"/>
</clipPath>
<clipPath id="clip6_256_1038">
<rect width="32.94" height="206" fill="white" transform="translate(83.2925 120.894) rotate(0.0158183)"/>
</clipPath>
<clipPath id="clip7_256_1038">
<rect width="28.06" height="206" fill="white" transform="translate(30.833 120.88) rotate(0.0158183)"/>
</clipPath>
<clipPath id="clip8_256_1038">
<rect width="29.28" height="24" fill="white" transform="translate(25.9155 254.878) rotate(0.0158183)"/>
</clipPath>
<clipPath id="clip9_256_1038">
<rect width="29.28" height="24" fill="white" transform="translate(25.9248 220.878) rotate(0.0158183)"/>
</clipPath>
<clipPath id="clip10_256_1038">
<rect width="29.28" height="24" fill="white" transform="translate(25.9346 186.878) rotate(0.0158183)"/>
</clipPath>
<clipPath id="clip11_256_1038">
<rect width="29.28" height="24" fill="white" transform="translate(25.9438 152.878) rotate(0.0158183)"/>
</clipPath>
</defs>
</svg>
